<svg width="23" height="18" fill="none" xmlns="http://www.w3.org/2000/svg"><path d="M1.225 14.6c.216 0 .433.013.647 0a6.462 6.462 0 001.2-.217 5.957 5.957 0 002.135-1.071c.186-.142.363-.295.53-.459.36-.365.672-.778.925-1.226.216-.398.387-.82.508-1.257a.75.75 0 00.016-.101H5.61a4.165 4.165 0 01-.977-.113.902.902 0 01-.09-.026.272.272 0 01-.044-.028l.256-.598.616-1.427a.688.688 0 01.093-.192c.042-.04.099-.064.158-.065.49-.005.98 0 1.469 0h.128c-.016-.078-.025-.147-.044-.213a5.244 5.244 0 00-.923-1.886 7.765 7.765 0 00-.69-.766 5.06 5.06 0 00-1.033-.76 6.134 6.134 0 00-1.229-.54 5.355 5.355 0 00-1.082-.239c-.288-.027-.577-.04-.865-.058a1.657 1.657 0 01-.211-.029c-.023 0-.049-.035-.06-.06L.78 2.577c-.116-.27-.231-.542-.348-.81L.14 1.095c.07-.024.14-.044.211-.058A6.96 6.96 0 011.697.98a9.695 9.695 0 013.437.778 8.657 8.657 0 011.684.945c.235.172.46.359.687.542.101.084.202.172.302.265a8.16 8.16 0 011.318 1.632c.37.596.65 1.245.83 1.924.057.225.1.454.155.68a.107.107 0 00.08.063h2.043c.035-.164.066-.327.106-.488.116-.47.278-.93.481-1.369.164-.366.362-.716.592-1.045.21-.297.436-.583.67-.86.18-.212.372-.411.575-.598.421-.388.879-.733 1.366-1.031.5-.313 1.03-.572 1.584-.773.378-.135.762-.249 1.15-.35.287-.07.578-.125.872-.164.245-.038.493-.057.74-.077.158-.013.317-.017.476-.02.236 0 .474-.014.705 0 .23.015.465.063.696.102.008 0 .015.01.031.025l-.174.405c-.183.429-.367.857-.551 1.283-.067.155-.137.304-.202.462-.043.101-.14.059-.211.08a.67.67 0 01-.17 0c-.631.007-1.26.1-1.867.275a6.47 6.47 0 00-1.112.43c-.434.211-.84.476-1.208.788-.155.134-.319.262-.46.405a5.94 5.94 0 00-.93 1.235 5.689 5.689 0 00-.483 1.188.738.738 0 00-.017.101h.107c.527 0 1.055-.008 1.581 0 .314-.002.625.05.922.15a.202.202 0 01.035.021c-.101.223-.192.444-.287.666-.207.479-.415.957-.62 1.436-.063.146-.1.177-.261.177H14.9c.04.137.068.262.11.384.146.427.346.834.597 1.209.148.217.313.424.48.63.102.123.211.24.327.349.375.365.795.68 1.25.937.386.222.795.405 1.219.543.406.14.826.232 1.253.277.266.024.533.04.8.058.1.007.2.01.302.021a.073.073 0 01.052.04c.175.405.346.81.52 1.215.141.324.285.647.435.987a3.498 3.498 0 01-.413.073c-.345.02-.692.042-1.038.036-.31-.005-.62-.03-.928-.074-.418-.06-.834-.135-1.246-.227a8.24 8.24 0 01-1.445-.492 8.447 8.447 0 01-1.586-.889 13.434 13.434 0 01-.761-.598 6.075 6.075 0 01-.469-.433 8.446 8.446 0 01-.885-1.074 7.69 7.69 0 01-.661-1.156 7.133 7.133 0 01-.508-1.534.805.805 0 01-.036-.163c0-.1-.046-.121-.138-.121h-2.03a7.497 7.497 0 01-.483 1.6c-.18.434-.407.847-.676 1.232-.21.297-.436.582-.67.861-.175.21-.365.407-.57.588-.313.273-.642.53-.976.777a7.718 7.718 0 01-1.268.738 9.168 9.168 0 01-1.652.602c-.319.083-.645.14-.97.193-.312.05-.626.085-.94.113-.179.009-.358.009-.537 0-.26 0-.52-.01-.778-.02a2.137 2.137 0 01-.276-.038c-.05-.01-.07-.032-.044-.091.201-.466.408-.933.61-1.4.114-.257.228-.525.354-.817z" fill="#00838D"/></svg>