<svg width="44" height="32" fill="none" xmlns="http://www.w3.org/2000/svg"><path d="M2.17699 27.1538c.41561 0 .85101.0202 1.26661 0 .79163-.0606 1.58327-.2221 2.35511-.424 1.52389-.4241 2.94883-1.151 4.19565-2.1404.35624-.2827.71244-.5856 1.04894-.9087.7124-.7269 1.326-1.5548 1.8207-2.4433.4354-.7875.7521-1.6356.9896-2.5038.0198-.0606.0198-.1414.0396-.202H10.786c-.6531 0-1.28641-.0807-1.91971-.2221-.05938-.0202-.11875-.0404-.17812-.0404-.03958-.0202-.05937-.0404-.07916-.0605.17811-.4039.33644-.7876.49477-1.1914l1.20722-2.8471c.0396-.1414.099-.2625.1781-.3837.0792-.0808.1979-.1212.3167-.1212.9697-.0201 1.9197 0 2.8894 0h.2573c-.0396-.1615-.0396-.2826-.0791-.424-.3563-1.3731-.9698-2.6452-1.8208-3.75579-.4156-.5452-.8708-1.05001-1.3656-1.53463-.6135-.58558-1.28636-1.09039-2.03841-1.51443-.77185-.44424-1.58327-.8077-2.41448-1.0904-.69268-.22211-1.40515-.38365-2.13741-.48462-.57393-.06057-1.12808-.08076-1.70201-.12115-.13854 0-.27707-.02019-.41561-.04038-.05937-.0202-.09895-.06058-.11874-.12116-.19791-.46443-.39582-.90866-.59373-1.37309-.23749-.54519-.455186-1.09039-.692676-1.61539C.395817 1.14592.197908.721881 0 .257454L.415607.136299C1.2864.015144 2.17699-.025241 3.06758.015144 4.47272.05553 5.87787.277646 7.26323.641111c.87079.242309 1.74159.545199 2.5728.908659 1.16767.50481 2.27597 1.13078 3.30507 1.8779.4552.34327.9104.70674 1.3458 1.0702.1979.16154.3958.34327.5937.525.9895.96924 1.8603 2.07983 2.5926 3.27118.7323 1.19136 1.2666 2.48365 1.6228 3.83655.1188.4443.198.9087.2969 1.3529.0198.0606.0792.1212.1583.1212h4.0176c.0791-.3231.1385-.6462.1979-.9693.2375-.949.5541-1.8577.9499-2.72595.3167-.72693.7125-1.43366 1.1677-2.07982.4156-.58559.851-1.17117 1.326-1.71636.3562-.42404.7322-.82789 1.1281-1.19136.8312-.76731 1.7218-1.45386 2.6915-2.05963.9895-.62597 2.0187-1.13078 3.1072-1.53463.752-.2625 1.5041-.504807 2.2561-.706732.5739-.141347 1.1281-.242309 1.7218-.323079.475-.08077.9698-.121155 1.4645-.16154.3167-.020192.6136-.040385.9302-.040385.475 0 .9302-.020192 1.3854 0 .4552.020193.9103.121155 1.3655.201925.0198 0 .0198.020192.0594.060577l-.3364.807694c-.3563.84809-.7125 1.69617-1.0885 2.56445-.1386.30288-.2771.60577-.3959.92885-.0791.20192-.277.12115-.4156.16154-.1187.02019-.2177.02019-.3364 0-1.2468.02019-2.4739.20192-3.6613.5452-.7521.22211-1.4843.50481-2.177.84808-.851.42404-1.6426.94905-2.3749 1.57501-.2969.2625-.6333.52501-.9104.82789-.7124.72693-1.326 1.55487-1.8207 2.46347-.3958.7471-.7125 1.5346-.95 2.3625-.0198.0606-.0198.1414-.0396.202h.2177c1.0292 0 2.0781-.0202 3.1072 0 .6135 0 1.227.1009 1.8207.3028.0198.0202.0396.0202.0594.0404l-.5739 1.3327c-.3958.9491-.8114 1.8981-1.2073 2.8674-.1187.2827-.1979.3432-.5145.3432h-2.8895c.0792.2827.1386.525.2177.7673.2771.8481.6729 1.6558 1.1677 2.4029.2968.4443.6135.8481.9499 1.252.1979.2423.4156.4846.6333.6865.7323.727 1.5635 1.3529 2.4541 1.8577.7521.4443 1.5635.8077 2.3947 1.0904.7916.2827 1.6228.4645 2.4738.5452.5146.0404 1.049.0808 1.5635.1212.1979.0202.3958.0202.5937.0404.0396.0202.0792.0403.099.0807.3364.8077.6729 1.6154 1.0291 2.4231.2771.6462.5542 1.2923.851 1.9789-.277.0606-.5343.1211-.8114.1413-.6729.0404-1.3656.0808-2.0384.0808-.6136 0-1.2271-.0606-1.8208-.1413-.8114-.1212-1.6426-.2625-2.4541-.4443-.9697-.2423-1.9197-.5654-2.8498-.9692-1.1083-.4846-2.1375-1.0702-3.127-1.777-.5146-.3836-1.0093-.7875-1.5041-1.1913-.3166-.2625-.6333-.5654-.9104-.8683-.6333-.6663-1.227-1.3731-1.7416-2.1404-.4947-.7269-.9301-1.4942-1.3062-2.3019-.4551-.9693-.7718-1.9991-.9895-3.0491-.0396-.101-.0594-.2221-.0792-.3231 0-.2019-.0989-.2423-.277-.2423h-3.9978c-.1979 1.0904-.5145 2.1606-.9499 3.1904-.3563.8683-.7917 1.6962-1.326 2.4635-.4156.5856-.851 1.1712-1.326 1.7164-.3364.424-.7125.8077-1.1083 1.1711-.6135.5452-1.2666 1.05-1.9197 1.5549-.7916.5653-1.6228 1.0702-2.4936 1.474-1.04895.5048-2.13745.9087-3.24573 1.1914-.63331.1615-1.26662.2827-1.89992.3836-.61352.101-1.22703.1616-1.84055.2221-.35623.0202-.71247.0202-1.04891 0-.51456 0-1.02912-.0202-1.523894-.0404-.178117-.0201-.356235-.0403-.534352-.0807-.098954-.0202-.138536-.0606-.079163-.1818.395816-.9288.811419-1.8577 1.207239-2.7865.23749-.5654.45519-1.0904.71247-1.676z" fill="#00838D"/></svg>