<svg width="24" height="29" fill="none" xmlns="http://www.w3.org/2000/svg"><path fill-rule="evenodd" clip-rule="evenodd" d="M21.8824 10.5882h-2.1177V7.76471C19.7647 3.47638 16.2883 0 12 0 7.71167 0 4.23529 3.47638 4.23529 7.76471v2.82349H2.11765C.948103 10.5882 0 11.5363 0 12.7059v14.1176c0 1.1696.948103 2.1177 2.11765 2.1177H21.8824c1.1695 0 2.1176-.9481 2.1176-2.1177V12.7059c0-1.1696-.9481-2.1177-2.1176-2.1177zM6.35293 7.76471c0-3.11878 2.52827-5.64706 5.64707-5.64706 3.1188 0 5.647 2.52828 5.647 5.64706v2.82349H6.35293V7.76471zM21.8823 26.8236H2.11762V12.7059H21.8823v14.1177z" fill="#94CBCF"/><path fill-rule="evenodd" clip-rule="evenodd" d="M12.353 23.2942c1.7543 0 3.1764-1.4221 3.1764-3.1764 0-1.7544-1.4221-3.1765-3.1764-3.1765-1.7544 0-3.17652 1.4221-3.17652 3.1765.00389 1.7527 1.42372 3.1725 3.17652 3.1764zm-.0001-4.2355c.5848 0 1.0589.4741 1.0589 1.0589 0 .5847-.4741 1.0588-1.0589 1.0588-.5847 0-1.0588-.4741-1.0588-1.0588 0-.5848.4741-1.0589 1.0588-1.0589z" fill="#94CBCF"/></svg>