<svg width="44" height="43" fill="none" xmlns="http://www.w3.org/2000/svg"><path fill-rule="evenodd" clip-rule="evenodd" d="M25.0191 12.9c-2.3387.0016-4.364 1.6242-4.8756 3.9063-.5115 2.2822.6272 4.614 2.7415 5.6138 2.1144.9998 4.6393.4004 6.0785-1.4431 1.4393-1.8434 1.4084-4.4383-.0744-6.247-.9504-1.1593-2.3709-1.831-3.87-1.83zm1.27 6.55c-.6255.5139-1.4991.5999-2.2129.2181-.7137-.3818-1.127-1.1563-1.0467-1.9618.0803-.8055.6382-1.4832 1.4133-1.7167.7751-.2335 1.6145.0233 2.1263.6504.6945.8565.5648 2.1134-.29 2.81h.01z" fill="#75BCC2"/><path fill-rule="evenodd" clip-rule="evenodd" d="M43.0992 2.9c-.0498-1.55757-1.2838-2.817682-2.84-2.9h-1.19c-4.34 0-15.13.71-21.68 7.26a32.93031 32.93031 0 00-3.14 3.66l-.26.07-11.92999 4.07c-.99591.3289-1.747723 1.1541-1.982812 2.1762-.23509 1.0221.080684 2.0928.832809 2.8238l6.380003 6.39c-.88403.277-1.69648.7447-2.38 1.37-1.48051 1.7402-2.15936 4.0236-1.87 6.29a4.778952 4.778952 0 01-.53 1.2c-.53908.834-.63049 1.8808-.24413 2.7956.38636.9149 1.20041 1.5793 2.17413 1.7744.30294.0603.61111.0904.92.09.89479-.0098 1.77236-.2472 2.55-.69.27556.2006.5833.3528.91.45.55977.1567 1.13873.2341 1.71999.23 1.7288.008 3.3889-.6762 4.61-1.9.6496-.6563 1.139-1.4536 1.43-2.33l6.33 6.33c.7338.7515 1.8073 1.0645 2.83.8252 1.0227-.2393 1.8458-.9961 2.17-1.9952l3.92-11.76c1.3612-.942 2.6362-2.0028 3.81-3.17 7.88-7.94 7.48-22.42 7.46-23.06zm-31.44 12c-1.4455 2.619-2.54155 5.4161-3.25999 8.32l-5.38-5.32 8.63999-3zm1.36 21c-.661.6557-1.5591 1.0163-2.49 1-.2898.0042-.5789-.0294-.85999-.1 0 0-.09-2.36-.65-2.92 0 0-1.8 3-3.67 3-.10973.011-.22028.011-.33 0 .61809-.93.96441-2.0139 1-3.13-.18779-1.3713.17141-2.7614 1-3.87.95354-.6775 2.10065-1.0282 3.26999-1 1.0073-.0462 1.9909.3141 2.73 1 0 0 2.09 3.93 0 6.02zm12 4l-5.78-5.78c2.9889-.4696 5.891-1.383 8.61-2.71l-2.83 8.49zm8.45-16.1c-4.3242 4.2499-9.9679 6.8989-16 7.51l-1.09-1.09c-.1946-.5978-.4353-1.1795-.72-1.74-.1375-.2609-.3127-.5002-.52-.71-.782-.7775-1.7544-1.3361-2.82-1.62l-1.21-1.21c1.236-5.89 4.1539-11.295 8.4-15.56 2.4183-2.27001 5.3528-3.91741 8.55-4.8-.0932 2.82669.906 5.5807 2.79 7.69 2.04 1.8594 4.7323 2.8371 7.49 2.72h.08c-.9016 3.2878-2.5824 6.3098-4.9 8.81h-.05zm5.73-11.84c-2.63.19-4.89-.45-6.23-1.8-1.34-1.35-2-3.67-1.91-6.34a41.32999 41.32999 0 018-.82c.3371.01767.6748-.01948 1-.11a39.328053 39.328053 0 01-.86 9.06v.01z" fill="#75BCC2"/></svg>