<svg width="171" height="88" fill="none" xmlns="http://www.w3.org/2000/svg"><path d="M20.3122 70.2374c-10.40627 0-17.66622-1.7849-19.723019-5.0199-.778248-1.2271-.778248-2.6216-.022235-3.9491C4.73613 53.9951 33.5758 47.168 87.0192 49.3544c2.2013.0893 4.4471.2566 6.8264.4351 9.0164.6582 18.3444 1.3498 23.5474-2.3315l1.29 1.8407c-5.848 4.1386-15.587 3.4247-25.0042 2.733-2.357-.1784-4.5917-.3346-6.7485-.4239-56.0673-2.298-81.20468 5.1873-84.41773 10.7873-.44472.7698-.2446 1.2718-.03336 1.6176 1.70103 2.6884 10.89549 4.9418 27.07189 3.5585l.189 2.2423c-3.3575.2789-6.515.4239-9.4279.4239z" fill="#000"/><path d="M105.052 38.5782l3.792-.8366-8.828 2.2088c-1.0006.2454-1.3897.6247-1.2341 1.0039V55.858c.0112.3235.467.6693 1.3671.9482l18.078 5.7227c1.79.5578 4.658.6693 6.404.2343l42.981-10.7538c.845-.212 1.268-.5132 1.279-.8255-.033-4.0494-.033-10.4415 0-14.8033 0 .0446-.033.0781-.044.1227.144-.3681-.29-.7808-1.312-1.1044l-18.134-5.9681c-1.79-.5689-4.658-.6693-6.403-.2343l-34.143 8.5451" fill="#fff"/><path d="M122.641 49.2875c-1.457 0-2.969-.1897-4.125-.5466l-18.7557-5.9124c-1.4454-.4574-2.168-1.1602-2.1458-2.0749.0222-.6247.4002-1.4502 2.1235-1.8853l42.982-10.7538c1.945-.4908 5.025-.3793 7.004.2454l18.133 5.9682c1.445.4574 2.157 1.1601 2.135 2.0749-.023.6247-.401 1.4502-2.124 1.8852L125.52 48.9751c-.811.212-1.823.3124-2.879.3124zm-21.68-8.4223l18.233 5.745c1.601.502 4.247.6024 5.804.2119l41.692-10.5307-17.633-5.8008c-1.579-.502-4.236-.5912-5.793-.2119l-42.303 10.5865z" fill="#000"/><path d="M167.879 53.0915l-.533-2.1642c.2-.0446.344-.1004.433-.1338-.033-3.4471-.033-8.4447-.011-12.4718l-2.857.7251-.545-2.1642 2.968-.7474c.478-.1227.623-.2343.623-.2343-.044.0335-.167.1897-.178.4463l2.224.0557c-.034 4.373-.034 10.7204 0 14.781-.023.6582-.412 1.4837-2.124 1.9076zM99.8449 40.7623l-2.2236.008.0545 15.0822 2.2236-.0081-.0545-15.0821z" fill="#000"/><path d="M122.018 64.1465c-1.456 0-2.968-.1896-4.124-.5466l-18.0781-5.7227.6671-2.1307 18.078 5.7227c1.589.502 4.247.6024 5.803.212l42.982-10.7539c.478-.1227.622-.2342.622-.2342-.044.0334-.167.1896-.178.435l2.224.1004c-.022.6136-.423 1.4391-2.135 1.863l-42.97 10.7538c-.823.2008-1.846.3012-2.891.3012zM103.863 39.9839l1.145-19.5889c.078-1.3833 1.223-2.4654 2.601-2.4654.701 0 1.368.2789 1.857.7809.489.502.756 1.1713.745 1.8853l-.256 18.0383-6.092 1.3498zm3.746-19.8343c-.2 0-.378.1561-.389.3681l-.978 16.655 1.501-.3346.244-16.287c0-.145-.066-.2342-.111-.2788-.033-.0447-.122-.1227-.267-.1227z" fill="#000"/><path d="M88.3644 55.1664v-.0224h-.0111c-.1668-.6358-2.0235-1.1936-2.9351-1.5171l-18.111-6.2136c-2.7127-1.1601-4.4693-1.2494-6.0703-.8031l-35.6771 9.5936c-1.4009.3793-1.8678.7474-1.8011 1.0598h-.0111l.0111 16.5435c0 .3904.3335.5131 1.1451.8812.0556.0223 7.9159 4.1499 7.9715 4.1722l12.1963 6.3251c1.8455.9036 3.4131 1.2159 5.3254.6024l36.7778-13.4869c.9005-.2789 1.223-.6805 1.1896-1.1267v.1004-16.0303-.0781z" fill="#fff"/><path d="M107.398.80603c3.536.055777 6.849 1.03745 9.784 3.20159.878.64701 1.656 1.38327 2.368 2.20877.2.23426.2.23426-.011.45737-.512.51315-1.023 1.0263-1.535 1.53945-.189.18964-.2.18964-.366-.01116-.768-.91474-1.646-1.70678-2.635-2.36495-1.69-1.11553-3.547-1.80717-5.548-2.09721-2.757-.40159-5.426-.05577-7.972 1.08208-1.7007.75856-3.1682 1.84064-4.3689 3.26853-.0445.05577-.1001.11155-.1446.16733-.1.14502-.1779.1004-.2779 0-.5448-.54661-1.0784-1.09323-1.6343-1.63984-.1446-.14502-.1223-.23427 0-.35698.5559-.54661 1.0784-1.149 1.6676-1.651C98.8262 2.814 101.261 1.69846 103.974 1.163c1.1-.234261 2.212-.334659 3.424-.35697z" fill="#E6E7E8"/><path d="M107.22 6.4953c3.202.07809 5.937 1.08208 8.15 3.33547.166.16733.289.36813.433.54663-.144.145-.278.3012-.422.4462-.423.4351-.856.859-1.29 1.294-.189.1897-.2.1897-.367-.0111-1.178-1.3721-2.668-2.24226-4.425-2.62154-2.624-.55777-5.058-.11156-7.226 1.51714-.423.3123-.779.7251-1.157 1.0932-.2.2008-.189.212-.366.0335-.534-.5355-1.0566-1.0709-1.6014-1.5952-.1445-.145-.1112-.2343 0-.357.6115-.71396 1.3234-1.31635 2.1124-1.8295 1.545-1.00399 3.224-1.58407 5.059-1.76255.4-.03347.789-.06694 1.1-.08925z" fill="#E6E7E8"/><path d="M106.987 11.8611c1.89.0223 3.302.502 4.514 1.5171.155.1339.311.2789.444.4351.223.2342.223.2454.011.4574-.522.5243-1.045 1.0486-1.567 1.5729-.134.1338-.2.1562-.334-.0112-1.134-1.439-3.591-1.6398-5.081-.4127-.155.1338-.3.29-.422.4462-.111.1339-.178.1004-.278 0-.545-.5466-1.078-1.0932-1.634-1.6287-.167-.1562-.123-.2677.011-.4016.767-.8143 1.69-1.3944 2.768-1.6845.612-.1785 1.245-.2342 1.568-.29z" fill="#E6E7E8"/><path d="M42.9148 79.3513c-.9561 0-1.8455-1.0374-2.1902-2.588-.3669-1.651.1001-3.1235 1.0562-3.3578.8672-.212 1.701.5243 2.1902 1.9187.0667.1897.1334.4016.1779.6247.0445.2231.089.4351.1223.6359.1779 1.0821.1112 1.7737-.2335 2.2311-.2223.3012-.5559.4797-.9783.5243-.0445 0-.089.0111-.1446.0111zm-.8338-5.3211c-.0445 0-.0889 0-.1334.0111-.5114.1227-.8672 1.216-.567 2.5769.2779 1.2495.9895 2.1307 1.6232 2.0638.2335-.0223.4002-.1004.5114-.2454-.0667.0223-.1334.0335-.2112.0335-.6449.0557-1.5343-.7698-1.79-1.9299-.2557-1.1825.0222-2.22.6559-2.51h-.0889zm.4781.5801c-.0334 0-.0556 0-.0779.0111-.289.067-.5558.7809-.3335 1.7849.2112.9371.8894 1.4391 1.0784 1.4056.2113-.0223.2891-.1004.3336-.1562.1334-.1896.1223-.5689.0778-.9259 0-.0223 0-.0335-.0111-.0558-.0334-.2342-.0778-.4462-.1112-.5912-.0445-.1897-.0889-.357-.1556-.5243-.1557-.4128-.3669-.7363-.5893-.8813-.0778-.0446-.1445-.0669-.2112-.0669zm9.5613 4.5291c-.1445 0-.2779-.0446-.4002-.1227-.189-.1339-.3002-.3458-.3002-.5801v-5.1092c0-.3458.2112-.647.5336-.7586l6.504-2.2422c.1667-.0558.3557-.0335.5003.0781.1445.1004.2334.2789.2334.4573v5.2543c0 .3012-.189.58-.478.6804l-6.3594 2.3092c-.0778.0223-.1557.0335-.2335.0335zm-.0333-1.3052v.6024l6.4149-2.2646c.0223-.0111.0445-.0334.0445-.0557v-5.1092l-.8783.3012v3.9936c0 .3124-.189.5801-.4781.6805l-5.103 1.8518zm4.9029-6.3028l-4.814 1.6621c-.0556.0223-.0889.067-.0889.1339v3.804l4.8696-1.7737.0333-3.8263z" fill="#000"/><path d="M48.4515 87.216c-1.512 0-2.7794-.4909-3.869-1.0263L32.364 79.8534c-.0111 0-1.0895-.569-2.457-1.2829-2.2792-1.1936-5.3477-2.8-5.5034-2.8781l-.1556-.0669c-.756-.3458-1.6121-.7363-1.6121-1.8184l-.0111-16.4654c-.0111-.0892-.0111-.1673 0-.2342.0778-1.1379 1.3786-1.6399 2.6349-1.9745l35.6883-9.5937c2.0345-.5689 4.0691-.3123 6.793.859l18.4222 6.3139c1.5676.5355 3.3465 1.1379 3.3242 2.5435 0 .0558 0 .1115-.0111.1673v15.863c-.0111.5689-.2891 1.5841-1.979 2.0972L50.7751 86.8478c-.8338.2566-1.612.3682-2.3236.3682zm-23.592-13.777c.0889.0446.2001.1004.3113.145l.189.0893c.0445.0223.0667.0334 5.57 2.9115 1.323.6917 2.3903 1.2495 2.4459 1.2829l12.1963 6.3251c1.7677.859 2.9907 1.0152 4.4805.5244l36.7444-13.4647c.2446-.078.3891-.145.4559-.1784V57.2079L50.9864 68.7872c-1.979.6359-3.7801.4797-6.0148-.5466l-20.1344-9.0582.0223 14.2566zm1.1006-16.1977l19.9343 8.9802c1.7455.8031 2.9462.9259 4.4138.4462l36.0774-11.5236c-.3669-.1338-.7338-.2677-.9451-.3346l-18.5-6.3475c-2.8684-1.2271-4.3471-1.082-5.4144-.7808l-35.566 9.5601z" fill="#000"/><path d="M48.5848 63.5776l-.0223-.0112-.1111.1785c.189.1227.2112.2789.0667.4016l-.3113-.1339-.4003.0558.4781.212c-.2668.078-.6448.078-.9339-.0112h-.0111l-.4114.0558.0223.0111c.4558.2008 1.1451.2231 1.6009.067l.2224.0892c-.3447.212-.2668.5132.189.714l.0222.0111.1112-.1785c-.2001-.1338-.2112-.3012-.0445-.4127l.3224.145.4003-.0446-.467-.2008c.2669-.067.6115-.0558.8895.0223h.0111l.4113-.0558-.0222-.0111c-.4447-.1897-1.1007-.2232-1.5676-.0893l-.2335-.1004c.3224-.2231.2335-.5131-.2112-.7139z" fill="#fff"/><path d="M39.3794 76.1051c-.0556 0-.1112-.0111-.1557-.0334l-4.814-2.1865c-.1445-.0669-.2334-.2008-.2223-.357l.1445-7.3514c0-.1339.0667-.2454.1779-.3123.1112-.067.2446-.0781.3669-.0223l4.8251 2.1753c.1445.0669.2335.2007.2224.3569l-.1557 7.3626c0 .1339-.0667.2454-.1779.3124-.0667.0446-.1334.0557-.2112.0557zm-4.4249-2.8111l4.058 1.8406.0556-2.5323-4.058-1.8406-.0556 2.5323zm.0667-3.5921l4.058 1.8407.0556-2.9451-4.0691-1.8294-.0445 2.9338zm-1.601 3.7036c-.0555 0-.1111-.0111-.1556-.0334l-5.8035-2.6439c-.1445-.0669-.2335-.2008-.2224-.3569l.1557-7.3292c0-.1338.0667-.2454.1779-.3123.1111-.067.2446-.0781.3668-.0223l5.8036 2.6215c.1445.0669.2334.2008.2223.357l-.1556 7.3402c0 .1339-.0667.2455-.1779.3124-.0667.0446-.1334.0669-.2113.0669zm-5.4143-3.2685l5.0475 2.298.1334-6.5036-5.0475-2.2757-.1334 6.4813zm3.2575 1.2717c-.0556 0-.1112-.0111-.1557-.0335l-1.2007-.5466c-.1445-.0669-.2223-.2008-.2223-.3569l.0111-.424-.2224-.1004c-.1445-.0669-.2335-.2007-.2223-.3569l.0222-.647-.7894-.357c-.1445-.067-.2335-.2008-.2223-.357l.0667-3.447c0-.1339.0667-.2454.1779-.3124.1111-.0669.2446-.0781.3668-.0223l3.8691 1.7403c.1445.0669.2334.2008.2223.3569l-.0667 3.4582c0 .1339-.0667.2454-.1779.3124-.1112.0669-.2446.0781-.3669.0223l-.2223-.1004-.0111.3235c0 .1339-.0668.2454-.1779.3123-.0779.0558-.1779.067-.2669.0558v.1116c0 .1338-.0667.2454-.1778.3123-.089.0335-.1668.0558-.2335.0558zm-.8116-1.1825l.4447.2008v-.0892c0-.1339.0667-.2454.1779-.3124.0778-.0557.1779-.0669.2668-.0557l.0111-.3347c0-.1339.0667-.2454.1779-.3124.1112-.0669.2446-.078.3669-.0223l.2224.1004.0555-2.6215-3.1129-1.4056-.0556 2.6104.8004.357c.1446.0669.2335.2008.2224.3569l-.0222.6471.2223.1004c.1446.0669.2335.2007.2224.3569v.4239z" fill="#000"/><path d="M28.695 64.7823l3.869 1.7403-.0778 3.4582-3.4799 1.2047c-.2446.0893-.5225.0781-.7671-.0111l-2.2681-.8924c-.3001-.1227-.5114-.4128-.5114-.7474v-2.7108c0-.357.2113-.6916.5448-.8367l2.6905-1.2048z" fill="#000"/></svg>