<svg width="1280" height="724" fill="none" xmlns="http://www.w3.org/2000/svg"><path d="M0 0h1280v717.6c0 2.24 0 3.36-.44 4.22a3.97 3.97 0 01-1.74 1.74c-.86.44-1.98.44-4.22.44H6.4c-2.24 0-3.36 0-4.22-.44a4 4 0 01-1.74-1.74C0 720.96 0 719.84 0 717.6V0z" fill="#fff"/><path d="M762.66 308.66a.66.66 0 01-.34-.11.6.6 0 01-.24-.48V296c0-.26.17-.49.42-.56l9.74-2.83a.6.6 0 01.52.1.6.6 0 01.24.46l-.02 12.06c0 .27-.17.49-.42.57l-9.7 2.84c-.09.02-.13.02-.2.02zm.6-12.22v10.83l8.53-2.5.01-10.83-8.54 2.5z" fill="#000"/><path d="M772.2 298.63l-9.71 2.85.33 1.13 9.7-2.84-.32-1.14z" fill="#000"/><path d="M788.75 301.02a.64.64 0 01-.35-.11.6.6 0 01-.24-.48v-11.99c0-.27.18-.49.43-.56l9.74-2.83a.61.61 0 01.52.09.6.6 0 01.23.47l-.01 11.98c0 .27-.18.49-.43.57l-9.7 2.84-.2.02zm.58-12.14v10.77l8.52-2.5.02-10.75-8.54 2.48z" fill="#CCC"/><path d="M798.28 291l-9.7 2.84.32 1.13 9.71-2.85-.33-1.13z" fill="#CCC"/><path d="M732.9 337.16c-.4 0-.74-.08-1.04-.32-.65-.49-.79-1.44-.79-2.72v-26.19a4.48 4.48 0 013.23-4.29l110.8-32.2a1.49 1.49 0 011.9 1.42v26.07c0 1.27-.82 2.39-2.03 2.78l-110.33 35.1c-.61.19-1.2.35-1.74.35zm-.58-1.89c.06.4.15.57.25.63.28.2 1.29-.08 1.73-.2l110.3-35.12c.72-.24 1.2-.9 1.2-1.65v-26.07c0-.12-.07-.2-.12-.23a.33.33 0 00-.27-.05l-.78.24v24.58c0 1.28-.82 2.4-2.03 2.78l-110.28 35.09zm-.07-10.04v8.81l110-35.02c.72-.23 1.21-.9 1.21-1.65v-24.22l-8.15 2.37c.92.66.92.82.92 1.05v3.04c0 .42-.29.81-.71.92l-8.67 2.44a.98.98 0 01-.85-.16.97.97 0 01-.38-.77v-2.86c0-.2.06-.4.19-.56l.33-.46-91.51 26.6a3.32 3.32 0 00-2.38 3.17v14.3c.11-.67.29-1.34.54-2.02 1.54-4.12 5.3-6.5 8.38-5.36 1.53.57 2.65 1.9 3.15 3.76a9.5 9.5 0 01-.38 5.8c-.74 1.96-2 3.6-3.54 4.62a5.34 5.34 0 01-4.84.75c-1.78-.7-2.95-2.42-3.3-4.55zm7.29-9.52c-2.19 0-4.53 1.95-5.65 4.9-1.32 3.5-.38 7.1 2.08 8.03 1.16.44 2.5.2 3.77-.63a8.4 8.4 0 003.08-4.06c.65-1.73.77-3.53.35-5.08-.4-1.47-1.27-2.53-2.42-2.95-.38-.13-.79-.2-1.21-.2zM828 277.63l-1.26 1.7.04 2.43 8.24-2.33v-2.64c-.22-.19-.72-.53-1.2-.85l-5.82 1.69zm-77.29 46.02c-.33 0-.64-.06-.94-.17-.9-.33-1.54-1.12-1.84-2.22a5.64 5.64 0 01.23-3.31c.9-2.4 3.09-3.8 4.85-3.13.7.27 1.26.8 1.6 1.57.5 1.12.5 2.6-.01 3.98a5.52 5.52 0 01-2.02 2.65c-.58.43-1.24.63-1.87.63zm1.39-7.81c-1.06 0-2.25 1.04-2.82 2.53-.33.9-.4 1.82-.2 2.61.18.7.58 1.21 1.1 1.41.53.21 1.16.08 1.76-.32a4.46 4.46 0 001.57-2.11c.41-1.09.43-2.23.05-3.07a1.8 1.8 0 00-.95-.95 1.5 1.5 0 00-.51-.1zm-.54-10.28a1.55 1.55 0 01-1.45-.99c-.3-.64-.28-1.52.02-2.34.53-1.43 1.78-2.24 2.82-1.86 1.03.4 1.43 1.83.9 3.24a3.33 3.33 0 01-1.12 1.54c-.38.28-.8.41-1.17.41zm.82-4.1c-.36 0-.88.45-1.16 1.18-.2.51-.23 1.08-.05 1.44.06.14.16.24.27.29.22.09.48-.08.58-.16.3-.22.55-.58.7-1 .32-.81.15-1.58-.2-1.72l-.14-.03zm6.6 1.96c-.2 0-.37-.03-.56-.1-1.04-.38-1.43-1.8-.9-3.23.24-.64.63-1.18 1.12-1.54.55-.4 1.17-.5 1.7-.31 1.04.39 1.43 1.8.9 3.23a3.21 3.21 0 01-1.53 1.78c-.25.1-.5.17-.74.17zm.8-4.1a.82.82 0 00-.45.19c-.3.22-.55.58-.7.99-.32.82-.15 1.59.2 1.71.11.05.24.03.38-.05.36-.15.7-.6.91-1.11.31-.82.14-1.59-.2-1.72l-.13-.01z" fill="#CCC"/><path d="M730.79 345l-1.48-.03c-5.36-.22-11.01-1.92-16.78-5.02-2.25-1.2-4.33-2.73-6.33-4.2-2.49-1.82-4.85-3.56-7.47-4.7l-30.32-14.52-3.2-1.5c-2.04-.97-4.08-1.94-6.11-2.95l-.55-.28c-.98-.49-1.54-.77-2.44-1.16-1.94-.85-3.23-1.23-4.99-1.75-.72-.22-1.52-.45-2.47-.75a30.77 30.77 0 01-3.02-1.07c-.69-.27-1.54-.61-3.91-1.42-.15-.04-3.18-1.1-7.15-4.04-1.05-.78-1.57-1.68-1.57-2.68v-41.4c-.03-.8.28-1.61.91-2.4 1.07-1.37 2.57-1.76 3.27-1.95 2.11-.56 3.17-.85 5.65-1.29l4.55-1.05 85.14-19.65c1.04-.23 2.1-.47 3.13-.72.57-.14 1.59-.38 2.93-.68a75.42 75.42 0 0110.5-1.63c2.07-.16 4.52-.29 7.07.08a40.3 40.3 0 0110.18 2.95l3.73 1.59c2.56 1.1 5.22 2.25 7.85 3.28 6.86 2.72 14.44 5.4 23.83 8.43 3.84 1.23 6.97 2.25 9.52 3.08 4.37 1.42 7 2.27 8.43 2.69l5.84 1.71c2.3.66 4.67 1.24 6.98 1.8 1.94.47 3.89.92 5.8 1.46 1.83.5 3.64 1.08 5.39 1.65l1.57.52c3.43 1.1 5.37 2.42 5.92 4.07.12.36.17.74.15 1.1v42.01c0 .18 0 .71-.56 1.63-.73 1.16-1.94 1.7-2.82 2.12l-.3.14c-.94.44-1.9.8-2.83 1.13l-.75.28c-1.48.55-3 1.04-4.44 1.51l-1.54.5a482.32 482.32 0 01-12.94 4.06l-20.86 6.8-58.56 19.04a60.94 60.94 0 01-9.52 2.77c-1 .17-2.91.44-5.43.44zm-94.63-46.09c.05 0 .2.11.27.16a25.62 25.62 0 006.28 3.6c2.45.81 3.35 1.18 4.07 1.47.66.27 1.18.48 2.8 1 .93.3 1.72.53 2.42.73a42.42 42.42 0 017.95 3.1l.55.27c2.01 1 4.03 1.96 6.06 2.9 1.07.51 2.14 1.01 3.2 1.53l30.26 14.5c2.9 1.25 5.5 3.17 8.04 5.02 2 1.48 3.88 2.87 5.94 3.97 5.37 2.87 10.56 4.44 15.44 4.65 3.05.13 5.38-.22 6.24-.36 1.25-.22 2.24-.49 3.29-.77a60.3 60.3 0 005.66-1.84l58.7-19.12 20.9-6.8c4.57-1.39 8.77-2.7 12.9-4.06l1.55-.5c1.45-.47 2.88-.93 4.3-1.46l.78-.29c.9-.33 1.75-.64 2.57-1.02l.32-.16c.59-.26 1.23-.56 1.47-.92.03-.07.06-.11.1-.16v-38.36c-.1.05-.21.08-.3.13l-.3.13c-.95.39-1.92.7-2.85 1.02l-.74.23c-1.48.5-2.96.92-4.45 1.34l-1.53.44c-4.07 1.2-8.3 2.37-12.93 3.62 0 0-.73.2-20.86 6.03l-58.57 16.98a65.35 65.35 0 01-9.5 2.45c-2.08.31-4.54.46-6.9.36-5.74-.2-11.54-1.9-18.28-5.3a42.6 42.6 0 01-4.67-2.84l-.42-.28c-1.6-1.07-3.1-2.1-4.72-2.9-.85-.42-1.48-.66-2.2-.94l-.23-.08-33.36-14.24c-2.08-.88-4.17-1.76-6.23-2.67l-.49-.22c-1.02-.46-1.59-.7-2.52-1.07-1.95-.75-3.22-1.08-5-1.56-.72-.19-1.53-.4-2.47-.67-1.73-.49-2.3-.7-3.02-.95a63.2 63.2 0 00-3.92-1.25c-.12-.02-2.42-.71-5.61-2.61v37.79l.01-.02zm0-41.47c.03 0 .11.07.22.13 3.53 2.34 6.23 3.17 6.26 3.19 2.46.74 3.35 1.05 4.08 1.3.67.24 1.2.43 2.81.88.93.27 1.72.48 2.43.67a43.09 43.09 0 017.99 2.8l.47.21c2.05.92 4.12 1.78 6.18 2.64l33.5 14.26c.74.28 1.5.57 2.48 1.07 1.81.91 3.46 2.03 5.07 3.1l.42.28a39.3 39.3 0 004.34 2.66c6.33 3.19 11.73 4.77 16.98 4.96 2.17.08 4.4-.03 6.3-.33a59.45 59.45 0 008.98-2.33l58.7-16.98 20.9-6.06a576.4 576.4 0 0012.87-3.6l1.54-.44c1.45-.4 2.9-.83 4.33-1.3l.75-.25c.91-.3 1.78-.59 2.6-.93l.33-.14c.55-.22 1.22-.5 1.44-.8-.03-.22-.92-1.12-3.84-2.05l-1.58-.52c-1.72-.55-3.48-1.13-5.23-1.62-1.88-.51-3.8-.97-5.7-1.43-2.35-.56-4.76-1.14-7.13-1.84l-5.86-1.7c-1.46-.43-4.12-1.3-8.5-2.73-2.56-.81-5.69-1.84-9.5-3.06a379.44 379.44 0 01-24.03-8.5 336.59 336.59 0 01-7.95-3.32c-1.22-.54-2.47-1.06-3.7-1.6a37.18 37.18 0 00-9.39-2.73c-2.25-.3-4.48-.19-6.37-.03a73 73 0 00-7.99 1.13c-.7.13-1.38.29-2.08.43-1.3.28-2.32.53-2.73.63l-3.3.77-76.38 17.62c-.85.19-1.26.3-1.48.33l-7.29 1.7-4.67 1.06c-2.4.43-3.4.7-5.41 1.23-.62.16-1.25.36-1.62.85a1.2 1.2 0 00-.25.4h.01z" fill="#000"/><path d="M797.5 326.62s-2.78-7.93-3.6-10.94c-1.58-5.9-2.97-11.02-7.14-13.55l1.23-2c4.97 3.02 6.53 8.81 8.18 14.94.85 3.16 3.6 10.77 3.6 10.77l-2.28.78z" fill="#CCC"/><path d="M796.52 328.62l-.52-1.48c-.11-.33-2.8-8.03-3.62-11.05-1.51-5.58-2.8-10.4-6.43-12.62l-1.34-.82 2.86-4.7 1.34.82c5.5 3.35 7.22 9.71 8.89 15.88.82 3.06 3.54 10.56 3.57 10.64l.55 1.5-5.3 1.83zM853.7 306.96l2.28-.7c-.47-2.9-.53-5.62-.58-8.21-.12-6.78-.25-13.2-8-18.93.12-.83-.1-1.62-.71-2.01l-4.03-2.16c-.7-.45-1.65-.3-2.44.33l-1.21 2.36c-.03.73.19 1.4.74 1.75l4.03 2.15c.7.46 1.66.28 2.45-.35 6.58 4.97 6.69 10.29 6.81 16.9.07 2.79.13 5.74.66 8.87z" fill="#CCC"/><path d="M784.01 305.46c-.74 0-1.43-.18-1.86-.53l-2.8-2.3a.58.58 0 01-.2-.42v-5.74c0-.25.17-.45.4-.53l2.13-.58a1.86 1.86 0 011.58.3l1.16.88 1.23-.32-.82-.7a.52.52 0 01-.17-.54.58.58 0 01.37-.4l2.52-.76a.58.58 0 01.5.1l2.8 2.29c.11.08.2.19.27.3.02.03.06.1.06.14.04.06.05.14.07.22l.01.14-.01 1.52-.03 1.7.04 2.5-.01.16a.82.82 0 01-.13.36c-.2.33-.6.58-1.16.74l-4.93 1.3c-.34.13-.69.17-1.02.17zm-3.77-3.52l2.6 2.14c.3.25 1.17.38 1.9.2l4.93-1.31c.32-.08.46-.2.5-.24l-.05-2.45.03-1.75c.01-.53.03-1.07.01-1.41v-.03l-2.6-2.13-1.27.38.85.74c.16.13.22.35.17.54-.04.2-.2.36-.39.4l-2.5.65a.57.57 0 01-.47-.1l-1.39-1.03a.7.7 0 00-.63-.13l-1.71.47v5.06h.01z" fill="#CCC"/><path d="M777.02 293.63l-.69.86 3.02 2.4.68-.85-3.01-2.4z" fill="#CCC"/><path d="M768.15 309.25l2.28-.66 7.45 5.13 4.78-1.37-7.46-5.12 2.67-.76-9.73-1.27" fill="#00838D"/><path d="M801.88 322.5l-.01-.07c.04-.48-.13-.92-.52-1.2l-.02-.01-10.57-7.13c-.3-.2-.8-.26-1.18-.15l-9.2 2.44c-.5.12-.62.47-.63.6v.02l-.02.04v.01l-.3 4.09c-.01.25.11.49.35.64l.33-.47-.32.47 10.9 7.36c.67.44 1.83.63 3.15.63 1.4 0 2.98-.22 4.31-.57 1.12-.3 3.75-1.15 3.86-2.6l-.13-4.1z" fill="#fff"/><path d="M794.28 325.85c-1.35 0-2.54-.19-3.24-.66l-11.23-7.56a.73.73 0 01-.35-.74c.05-.3.3-.55.65-.64l9.47-2.52c.35-.09.88-.06 1.23.18l10.87 7.32c.01 0 .01.02.03.02.44.33.63.83.52 1.38-.22 1.1-1.56 2.1-3.53 2.63-1.36.37-2.99.6-4.42.6zm-13.04-8.67l10.46 7.04c.85.56 3.81.67 6.7-.1 1.94-.51 2.6-1.35 2.66-1.7.02-.12 0-.17-.06-.21l-10.85-7.33c-.03-.01-.2-.03-.27-.01l-8.64 2.3zm13.04 7.04c-.74 0-1.4-.11-1.79-.38a.91.91 0 01-.42-.93c.14-.81 1.4-1.32 2.43-1.6 1.56-.4 3.56-.53 4.4.02.32.22.48.56.42.9-.14.83-1.4 1.33-2.44 1.61a9.8 9.8 0 01-2.6.38zm-1.13-1.35l-.33.48.33-.48zm.32.1a7.6 7.6 0 004.42-.76 7.59 7.59 0 00-4.42.77z" fill="#000"/><path d="M793.97 330.07c-1.35 0-2.55-.2-3.23-.66l.66-.98c.85.57 3.81.68 6.7-.1 2.3-.6 3.07-1.36 3.1-1.56l-.06-2.5c-.53.36-1.3.7-2.4 1-2.66.7-6.27.88-7.67-.06l.66-.97c.86.58 3.81.67 6.7-.1 2.07-.55 2.67-1.27 2.68-1.57.03-.32.3-.58.6-.55.31 0 .56.27.58.58l.11 4.21c-.1 1.51-2.81 2.38-3.96 2.7-1.4.34-3.02.56-4.47.56z" fill="#000"/><path d="M780.17 320.87l-.66.98 11.23 7.57.65-.98-11.22-7.57zM789.88 316.23l.08.07c.17.12.31.25.42.39.08.08.13.17.17.27.07.12.1.25.12.36l-.02.17-.02.08a.84.84 0 01-.23.38 1.8 1.8 0 01-.46.33l-.19.1.52.35.2-.03c.2-.03.4-.03.59-.05h.52l.47.04.35.04c.25.03.47.08.7.14.24.05.46.13.68.2.14.04.27.1.4.15l.3.14.21.11.13.08.17.13.14.12-.19.02c-.18.01-.39.01-.58.03l-.2.01-.08-.03-.05-.03-.56-.3-.43-.15-.58-.15-.27-.03a4.73 4.73 0 00-1.2-.01h-.04l.03.01.4.27.17.17-.32.02-.64.01-.13-.03-.36-.25-.11.05c-.11.06-.19.14-.27.22l-.1.14-.02.1c-.04.09-.05.2-.02.3.02.09.06.17.13.25.04.07.12.15.22.23l.19.14.06.05-.3.2c-.08.07-.16.11-.22.18l-.13-.07a1.51 1.51 0 01-.2-.12l-.08-.06-.2-.16-.24-.24a.7.7 0 01-.19-.3.71.71 0 01-.1-.34v-.2l.04-.12c.03-.08.08-.17.14-.25.08-.08.14-.14.25-.22.11-.08.24-.16.4-.23l.04-.02.02-.03-.52-.35-.68.07h-.6l-.45-.04-.37-.04-.51-.1-.57-.14a3.7 3.7 0 01-.63-.24l-.31-.14-.29-.15-.12-.1-.2-.14-.05-.05.01-.01c.2-.02.43-.02.63-.02l.38-.01.15.1c.12.08.24.13.38.2.27.1.59.2.92.26l.3.05a4.9 4.9 0 001.22.01l.03-.01-.4-.27-.18-.17-.01-.02-.04.05.29-.02.64-.03h.1l.06.02.38.25.03.02.06-.03c.2-.1.33-.2.43-.33l.09-.2c0-.07.02-.15 0-.24-.03-.08-.06-.18-.13-.26-.06-.06-.1-.14-.19-.2l-.2-.16-.03-.03v-.01l.17-.12.2-.14.13-.1.07.04.28.17z" fill="#000"/><path d="M736.8 319.27a.83.83 0 00-.44.26 6 6 0 00-1.35 4.81 3.38 3.38 0 001.09 2.03c.2.18.43.33.7.44.3.13.58.2.88.2h.38l.44-.09.08-.03c.26-.08.5-.17.7-.3.5-.28.93-.66 1.31-1.13.28-.33.52-.72.7-1.15a5.6 5.6 0 00.47-3.47c-.1-.46-.26-.86-.48-1.23a2.8 2.8 0 00-.75-.85.52.52 0 00-.43-.09.88.88 0 00-.42.24c-.2.2-.32.48-.32.77-.01.28.08.53.25.67.29.25.48.5.6.8.18.41.22.87.18 1.39a3.32 3.32 0 01-1.26 2.28c-.25.17-.52.3-.79.34-.13.03-.24.03-.36.03a1.5 1.5 0 01-.8-.28c-.24-.17-.43-.4-.57-.72-.16-.33-.22-.7-.24-1.1a3.31 3.31 0 01.88-2.28c.18-.2.26-.46.27-.73 0-.26-.08-.5-.23-.64a.5.5 0 00-.5-.17z" fill="#CCC"/><path d="M738.34 317.6c-.14.02-.25.16-.35.28a.91.91 0 00-.18.35c-.11.4-.08.83-.1 1.23l-.05 1.4v1.16c.02.25.05.52.24.67.19.18.49.18.7.05a.97.97 0 00.43-.6c.07-.25.08-.5.08-.75l.06-2.55c0-.15.02-.3 0-.45-.01-.16-.03-.3-.09-.44a.64.64 0 00-.11-.18c-.05-.03-.17-.19-.38-.2l-.25.03z" fill="#CCC"/></svg>