<svg width="223" height="117" fill="none" xmlns="http://www.w3.org/2000/svg"><g clip-path="url(#clip0)"><path d="M129.663 80.6566c-.126 0-.252-.0471-.347-.11-.141-.1101-.236-.283-.236-.4716V68.0024c0-.2672.173-.4873.425-.5659l9.738-2.8295c.173-.0471.378-.0157.519.0944.142.11.236.2829.236.4715l-.015 12.0569c0 .2672-.173.4873-.425.5659l-9.707 2.8452c-.078.0157-.126.0157-.188.0157zm.597-12.214v10.8307l8.527-2.4994.016-10.8307-8.543 2.4994z" fill="#000"/><path d="M139.196 70.9956l-9.707 2.8422.332 1.1314 9.707-2.8423-.332-1.1313z" fill="#000"/><path d="M139.195 70.6344l-9.707 2.8422.331 1.1314 9.707-2.8423-.331-1.1313z" fill="#000"/><path d="M155.746 73.0169c-.126 0-.252-.0471-.346-.11-.142-.1101-.236-.283-.236-.4716v-11.994c0-.2672.173-.4873.425-.5659l9.738-2.8295c.173-.0471.377-.0157.519.0944.142.11.236.2829.236.4715l-.016 11.9783c0 .2672-.173.4873-.425.5659l-9.706 2.8452c-.079 0-.142.0157-.189.0157zm.582-12.1354v10.7678l8.527-2.4994.016-10.7521-8.543 2.4837z" fill="#CCC"/><path d="M165.276 63.34l-9.707 2.8423.332 1.1313 9.707-2.8423-.332-1.1313z" fill="#CCC"/><path d="M165.279 62.9939l-9.707 2.8422.332 1.1313 9.707-2.8422-.332-1.1313z" fill="#CCC"/><path d="M99.8977 109.156c-.3933 0-.7394-.079-1.0383-.314-.6451-.488-.7866-1.447-.7866-2.72V79.9335c0-1.9807 1.3214-3.7412 3.2252-4.2914l110.8-32.1935c.456-.1258.928-.0472 1.305.2358.378.2829.598.7074.598 1.179v26.0628c0 1.2733-.818 2.3894-2.029 2.7824L101.644 108.81c-.614.189-1.211.346-1.7463.346zm-.5821-1.886c.0629.408.1573.566.2517.628.2832.205 1.2897-.078 1.7307-.204l110.296-35.1172c.724-.2358 1.212-.896 1.212-1.6506V44.8634c0-.1258-.079-.2044-.126-.2358-.047-.0315-.142-.0786-.268-.0472l-.786.2358v24.5853c0 1.2732-.818 2.3893-2.03 2.7823L99.3156 107.27zm-.063-10.0451v8.8191L209.25 71.0206c.724-.2358 1.212-.8961 1.212-1.6506V45.1463l-8.15 2.3736c.913.6603.913.8175.913 1.0533v3.0338c0 .4244-.283.8174-.708.9275l-8.668 2.4365c-.283.0786-.598.0314-.85-.1572-.236-.1887-.377-.4559-.377-.7703v-2.8609c0-.2044.063-.4087.188-.5659l.331-.4559-91.513 26.5974c-1.4.4087-2.3754 1.7134-2.3754 3.1753v14.3047c.1102-.6759.2832-1.3519.5349-2.0278 1.5415-4.1185 5.3015-6.5079 8.3855-5.3603 1.526.5659 2.643 1.902 3.146 3.7569.488 1.7763.362 3.8356-.378 5.8005-.739 1.9649-1.997 3.5995-3.539 4.6215-1.605 1.053-3.32 1.32-4.846.755-1.777-.708-2.9415-2.4212-3.3034-4.5591zm7.2844-9.5103c-2.187 0-4.531 1.9492-5.648 4.8888-1.3217 3.5054-.378 7.1052 2.076 8.0326 1.165.44 2.502.204 3.776-.629 1.337-.88 2.423-2.3262 3.083-4.0554.646-1.7291.771-3.5368.347-5.0774-.409-1.4776-1.275-2.5308-2.423-2.9552-.378-.1258-.787-.2044-1.211-.2044zm88.476-38.0882l-1.259 1.6977.032 2.4365 8.243-2.3265v-2.6409c-.22-.1886-.723-.5344-1.195-.8488l-5.821 1.682zM117.722 95.653c-.33 0-.645-.0629-.944-.1729-.897-.3302-1.542-1.1161-1.841-2.2165-.267-1.0218-.173-2.2007.236-3.3168.897-2.3894 3.084-3.7884 4.846-3.1282.708.2673 1.258.8017 1.604 1.572.504 1.116.504 2.5937-.015 3.977-.425 1.1161-1.133 2.075-2.014 2.6566-.582.4244-1.243.6288-1.872.6288zm1.384-7.8126c-1.054 0-2.249 1.0375-2.816 2.5308-.33.896-.409 1.8235-.204 2.6095.189.7073.582 1.2104 1.101 1.4147.535.2044 1.164.0786 1.762-.3301.676-.4559 1.227-1.2104 1.573-2.1064.409-1.0847.425-2.2322.047-3.0653-.157-.3301-.44-.7703-.944-.9589-.173-.0629-.346-.0943-.519-.0943zm-.535-10.2805c-.188 0-.361-.0315-.534-.0944-.409-.1572-.724-.4558-.913-.896-.299-.6445-.283-1.5248.016-2.3422.535-1.4304 1.778-2.2321 2.816-1.8549 1.038.393 1.431 1.8235.897 3.2382-.236.6445-.63 1.179-1.117 1.5405-.378.283-.787.4088-1.165.4088zm.819-4.1028c-.362 0-.881.4558-1.165 1.1789-.188.5188-.22 1.0847-.047 1.4462.063.1415.157.2358.268.283.22.0943.487-.0786.582-.1572.299-.2201.55-.5816.708-.9903.314-.8175.141-1.5877-.205-1.7292-.047-.0157-.094-.0314-.141-.0314zm6.591 1.9649c-.189 0-.362-.0314-.55-.0943-1.039-.393-1.432-1.8077-.897-3.2382.236-.6445.629-1.179 1.117-1.5405.55-.393 1.164-.5031 1.699-.3144 1.038.393 1.431 1.8077.897 3.2382-.315.8174-.881 1.4776-1.526 1.7763-.252.11-.504.1729-.74.1729zm.818-4.1028c-.189 0-.377.1258-.456.1887-.299.22-.551.5816-.708.9903-.315.8174-.142 1.5876.205 1.7134.11.0472.236.0314.377-.0472.362-.1571.708-.5973.913-1.116.314-.8174.141-1.5877-.205-1.7135-.031-.0157-.079-.0157-.126-.0157z" fill="#CCC"/><path d="M97.7893 117c-.4719 0-.9596-.016-1.4788-.031-5.3645-.22-11.0123-1.918-16.7859-5.015-2.2497-1.21-4.3263-2.735-6.3243-4.197-2.4856-1.823-4.8454-3.568-7.4726-4.7L35.4123 88.5322c-1.0698-.503-2.1238-1.006-3.1936-1.509-2.0452-.9589-4.0903-1.9335-6.1197-2.9396l-.5507-.2829c-.9753-.4873-1.5417-.7703-2.4384-1.1633-1.935-.8488-3.225-1.2261-4.987-1.7448-.7237-.2201-1.526-.4559-2.4699-.7546-1.7305-.5501-2.3126-.7702-3.0206-1.0689-.6922-.2672-1.5417-.613-3.91721-1.4147-.14159-.0472-3.17785-1.1004-7.14229-4.0399-1.05404-.786-1.5731932-1.682-1.5731932-2.6881V29.5371C-.031757 28.7354.282881 27.918.912158 27.132 1.98193 25.7644 3.47646 25.3714 4.1844 25.1828c2.10808-.5659 3.16211-.8489 5.64776-1.289.07866-.0157 1.58894-.3616 4.54654-1.0532L99.5198 3.19125c1.0382-.23579 2.0922-.47158 3.1302-.72309.567-.14148 1.589-.37727 2.927-.67594.723-.15719 1.431-.31439 2.155-.45586 2.958-.581624 5.695-.958891 8.338-1.178964 2.076-.1571942 4.531-.28295 7.079.078598 3.225.455864 6.56 1.414756 10.179 2.955256 1.243.51875 2.485 1.05321 3.728 1.58767 2.565 1.10036 5.223 2.24788 7.85 3.28537 6.86 2.71951 14.442 5.39181 23.834 8.42561 3.839 1.2261 6.97 2.2479 9.518 3.081 4.374 1.4148 7.001 2.2636 8.432 2.6881l5.837 1.7134c2.297.6602 4.672 1.2418 6.985 1.792 1.935.4716 3.886.9275 5.805 1.4619 1.825.503 3.634 1.0847 5.38 1.6506l1.574.5187c3.429 1.1004 5.364 2.4208 5.915 4.0713.126.3616.173.7389.157 1.1004v42.0181c0 .173 0 .7074-.566 1.6192-.724 1.1632-1.935 1.7134-2.816 2.1221l-.299.1414c-.944.4402-1.904.8017-2.832 1.1319l-.755.2829c-1.479.5502-2.989 1.0375-4.436 1.5091l-1.542.503c-4.138 1.3676-8.37 2.688-12.932 4.0556-.016 0-1.085.3616-20.86 6.7908l-58.57 19.0516c-1.888.724-3.902 1.384-5.947 1.934-1.117.299-2.187.582-3.571.833-.991.173-2.911.44-5.4277.44zM3.16182 70.9107c.0472 0 .20452.1101.26745.1572 3.55541 2.6566 6.2613 3.5998 6.27703 3.5998 2.4542.8174 3.3509 1.1789 4.0746 1.4776.6607.2672 1.1799.4716 2.8003.9903.9281.2987 1.7147.5345 2.4227.7388 1.8091.5345 3.225.9589 5.3488 1.8707.9597.4087 1.5575.7073 2.5958 1.2261l.5506.2672c2.0137 1.0061 4.0274 1.9649 6.0568 2.9081 1.0698.503 2.1395 1.0061 3.2093 1.5248l30.2525 14.4937c2.9104 1.257 5.5062 3.175 8.039 5.03 1.998 1.478 3.8858 2.861 5.9467 3.961 5.3646 2.877 10.5561 4.449 15.433 4.653 3.052.126 5.3806-.22 6.2456-.361 1.243-.22 2.234-.488 3.288-.771 1.337-.361 3.398-.974 5.663-1.839l58.696-19.1147c20.09-6.5393 20.861-6.7908 20.892-6.8065 4.578-1.3834 8.779-2.7038 12.9-4.0557l1.558-.503c1.447-.4716 2.879-.9274 4.31-1.4619l.771-.2829c.897-.3302 1.747-.6445 2.565-1.0218l.33-.1572c.582-.2672 1.227-.5659 1.463-.9275.031-.0628.063-.11.094-.1571V37.9942c-.094.0471-.204.0786-.299.1257l-.298.1258c-.944.393-1.92.7073-2.848 1.0217l-.739.2358c-1.479.4873-2.958.9118-4.452 1.3362l-1.526.4401c-4.075 1.1947-8.307 2.3737-12.932 3.6155 0 0-.724.2044-20.861 6.0363l-58.57 16.977c-2.359.8017-4.53 1.3833-5.946 1.7134-1.196.283-2.234.5188-3.556.7388-2.076.3144-4.5304.4559-6.8902.3616-5.7421-.2044-11.5472-1.9021-18.2805-5.2975-1.6518-.8331-3.1621-1.8234-4.6724-2.8452l-.4247-.2829c-1.589-1.069-3.0992-2.0907-4.7196-2.8924-.8495-.4245-1.4788-.6603-2.2025-.9432l-.2202-.0786-33.3674-14.2418c-2.0766-.8803-4.169-1.7606-6.2299-2.6723l-.4877-.2201c-1.0225-.4559-1.5889-.7074-2.5171-1.0689-1.9507-.7546-3.225-1.0847-5.0027-1.5563-.7237-.1886-1.526-.4087-2.4699-.6759-1.7305-.4873-2.2969-.6917-3.0206-.9432-.6922-.2515-1.5417-.5502-3.91721-1.2575-.12586-.0157-2.42272-.7074-5.6163-2.6095v37.7896c0-.0157.01573-.0157.01573-.0157zm0-41.4679c.03147 0 .11013.0628.22025.1257 3.52395 2.3422 6.22984 3.1754 6.26131 3.1911 2.45422.7388 3.35092 1.0532 4.07452 1.3047.6765.2358 1.1957.4244 2.8161.8803.9281.2672 1.7147.4716 2.4227.6602 1.8091.4716 3.225.8488 5.3331 1.6663.9754.3772 1.5732.6445 2.6587 1.1318l.4719.22c2.0452.9118 4.1218 1.7763 6.1827 2.6409l33.4933 14.2576c.7394.2829 1.4945.5659 2.4856 1.0689 1.8092.9117 3.461 2.0278 5.0657 3.0967l.4247.283c1.4317.9746 2.8475 1.902 4.3421 2.6566 6.3242 3.191 11.7202 4.7787 16.9747 4.9673 2.171.0786 4.4048-.0314 6.2928-.3301 1.211-.1886 2.171-.4087 3.304-.6759 1.337-.3144 3.413-.8646 5.679-1.6506l58.696-16.9927c7.787-2.2479 20.844-6.0363 20.907-6.052 4.61-1.2419 8.81-2.4051 12.869-3.5998l1.542-.4401c1.447-.4087 2.895-.8332 4.326-1.3047l.755-.2515c.913-.2987 1.778-.5817 2.596-.9275l.33-.1415c.551-.22 1.227-.503 1.448-.8017-.032-.22-.928-1.116-3.839-2.0435l-1.589-.5187c-1.715-.5502-3.477-1.1318-5.223-1.6191-1.888-.5188-3.807-.9747-5.71-1.4305-2.345-.5659-4.752-1.1475-7.127-1.8392l-5.852-1.7134c-1.463-.4244-4.122-1.289-8.511-2.7195-2.549-.8174-5.679-1.8392-9.502-3.0653-9.471-3.0496-17.101-5.7376-24.023-8.4885-2.674-1.06891-5.349-2.21644-7.945-3.33252-1.227-.53446-2.47-1.0532-3.697-1.58766-3.382-1.43048-6.45-2.32648-9.392-2.73519-2.249-.29867-4.483-.18863-6.371-.03144-2.533.20435-5.144.58162-7.992 1.1318-.692.12576-1.384.28295-2.076.42443-1.306.28295-2.329.53446-2.738.62878-1.18.28295-2.249.53446-3.303.77025L23.865 23.8781c-.8495.1886-1.2585.2986-1.4788.3301l-7.2838 1.6977c-3.0678.7074-4.6095 1.0532-4.6724 1.0689-2.39128.4244-3.39812.6917-5.41181 1.2261-.61355.1572-1.24282.3616-1.62039.8489-.18878.2358-.23598.3458-.25171.4087l.01573-.0157z" fill="#000"/><path d="M206.954 51.7485c-.189 0-.378-.0472-.551-.1258-.928-.4401-1.29-1.9492-.818-3.5054.299-.9903.865-1.7606 1.526-2.0593.377-.1729.786-.1729 1.148-.0157.928.4402 1.29 1.9492.818 3.5055-.299.9903-.865 1.7606-1.526 2.0592-.204.1101-.409.1415-.597.1415zm.739-4.6372c-.032 0-.063 0-.11.0314-.283.1258-.661.5816-.881 1.3204-.346 1.1476-.063 1.9964.189 2.1064.015.0158.062.0315.157-.0157.283-.1257.661-.5816.881-1.3204.346-1.1475.063-1.9964-.189-2.1064 0-.0157-.016-.0157-.047-.0157zM146.087 74.1959c-.126 0-.252-.0471-.346-.11-.142-.11-.236-.283-.236-.4716v-.3301l-.111.0314c-.173.0472-.361.0158-.519-.0943-.141-.11-.236-.2829-.236-.4716v-.6916l-.771.22c-.173.0472-.361.0158-.519-.0943-.141-.11-.236-.2829-.236-.4716v-5.659c0-.2672.173-.4873.425-.5659l7.803-2.2636c.173-.0471.378-.0157.519.0943.142.1101.236.283.236.4716v5.6433c0 .2673-.173.4873-.425.5659l-1.636.4873v1.0218c0 .2672-.173.503-.424.5659l-.504.1415v.6759c0 .2672-.173.4873-.425.5659l-2.422.7074c-.063.0314-.126.0314-.173.0314zm0-2.2793c.125 0 .251.0472.361.1258.142.11.236.2829.236.4715v.3301l1.243-.3615v-.6759c0-.2673.173-.4873.425-.5659l.488-.1415v-1.0218c0-.2672.173-.503.424-.5659l1.652-.4873V64.607l-6.623 1.9178v4.4329l.771-.2201c.173-.0471.378-.0157.519.0944.142.11.236.2829.236.4715v.6917l.11-.0314c.047-.0472.095-.0472.158-.0472z" fill="#CCC"/><path d="M141.682 77.1354c-.126 0-.252-.0471-.346-.11-.142-.11-.236-.2829-.236-.4716V64.5127c0-.2672.173-.4873.424-.5659l11.721-3.4111c.173-.0472.377-.0157.519.0943.141.11.236.283.236.4716v12.0097c0 .2672-.173.4873-.425.5659l-11.72 3.4425c-.063.0158-.11.0157-.173.0157zm.598-12.1825v10.815l10.54-3.0968V61.8876l-10.54 3.0653zM164.493 98.6239s-2.769-7.9383-3.587-10.9407c-1.589-5.9105-2.973-11.0194-7.142-13.5502l1.227-2.0121c4.971 3.0339 6.529 8.8186 8.18 14.9492.85 3.1596 3.603 10.7679 3.603 10.7679l-2.281.7859z" fill="#CCC"/><path d="M163.518 100.62l-.52-1.4773c-.11-.3301-2.8-8.0326-3.618-11.0508-1.51-5.5804-2.8-10.4063-6.434-12.6227l-1.337-.8174 2.863-4.7001 1.337.8174c5.506 3.3482 7.221 9.7146 8.888 15.8766.819 3.0653 3.54 10.5635 3.572 10.6421l.55 1.5091-5.301 1.8231zM220.703 78.9589l2.281-.7074c-.472-2.8924-.535-5.6119-.582-8.2056-.126-6.7751-.252-13.2043-8.007-18.9262.125-.8331-.095-1.6191-.708-2.0121l-4.028-2.1536c-.692-.4558-1.652-.2986-2.438.3301l-1.211 2.358c-.032.7231.188 1.399.739 1.7448l4.027 2.1536c.708.4559 1.668.2829 2.454-.3458 6.576 4.9673 6.687 10.2805 6.812 16.8984.063 2.7823.126 5.7376.661 8.8658z" fill="#CCC"/><path d="M157.665 72.2781c-.015-.8803.063-2.4837.048-3.2382 0-.0157-.016-.0157-.016-.0314 0-.0472-.016-.0786-.032-.1258-.015-.0157-.015-.0314-.031-.0471-.032-.0629-.079-.1258-.157-.173l-2.801-2.3107-3.193-2.5623-7.803 2.2636v5.659l3.004 2.468.693.5659.015.0157 2.108 1.7291c.472.393 1.542.5188 2.376.2987l1.211-.3144 2.502-.6602 1.211-.3144c.425-.11.708-.2829.834-.4873.031-.0629.047-.1257.063-.2043 0-.0158.016-.0158 0-.0315l-.032-2.4994z" fill="#fff"/><path d="M151.011 77.4655c-.74 0-1.432-.1886-1.857-.5344l-2.8-2.2951c-.016-.0157-.031-.0157-.031-.0314l-2.974-2.4365c-.126-.1101-.204-.2673-.204-.4245v-5.659c0-.2358.157-.4558.393-.5187l7.803-2.2636c.173-.0472.362-.0157.488.0943l3.162 2.5308c.016.0158.031.0158.047.0315l2.8 2.295c.111.0943.205.1886.268.3144.016.0314.047.11.063.1258.031.0628.047.1414.063.22.015.0472.015.0944.015.1415 0 .3616 0 .9275-.015 1.5248-.016.6131-.032 1.2576-.032 1.6977l.047 2.4994c0 .0472 0 .0943-.015.1572-.016.1415-.063.2672-.126.3615-.205.3301-.598.5817-1.164.7388l-4.924 1.3048c-.331.0786-.677.1257-1.007.1257zm-3.933-3.6469l2.769 2.2793c.298.2515 1.164.3773 1.887.1887l4.94-1.3048c.315-.0785.456-.1886.488-.2357l-.047-2.4523c0-.4558.015-1.1161.031-1.7448.016-.5345.032-1.069.016-1.4148v-.0314l-2.785-2.2951c-.015 0-.015-.0157-.031-.0157l-2.973-2.3736-7.127 2.0749v4.9988l2.816 2.3108c0-.0157 0 0 .016.0157z" fill="#CCC"/><path d="M157.665 72.2781c-.015-.8803.063-2.4837.047-3.2382 0-.0157-.015-.0157-.015-.0314 0-.0472-.016-.0786-.032-.1258-.015-.0157-.015-.0314-.031-.0472-.032-.0628-.079-.1257-.157-.1729l-2.801-2.3107-2.517.7545 1.621 1.3833-2.502.6445-1.384-1.0375c-.315-.2358-.724-.3144-1.101-.22l-2.124.5816v5.7376l2.816 2.3107c.472.393 1.541.5188 2.375.2987l1.212-.3144 2.501-.6602 1.211-.3144c.425-.11.708-.2829.834-.4873.032-.0629.047-.1257.063-.2043 0-.0158.016-.0158 0-.0315l-.016-2.5151z" fill="#CCC"/><path d="M151.011 77.4655c-.74 0-1.432-.1886-1.857-.5345l-2.8-2.295c-.126-.11-.204-.2672-.204-.4244V68.474c0-.2516.173-.4559.409-.5345l2.123-.5816c.535-.1415 1.133-.0315 1.574.2986l1.164.8803 1.227-.3144-.818-.7073c-.158-.1258-.22-.3301-.173-.5345.047-.1886.188-.3458.377-.4087l2.517-.7545c.173-.0472.362-.0158.504.0943l2.8 2.295c.11.0786.189.1887.268.2987.015.0314.062.11.062.1415.032.0628.048.1414.063.22.016.0472.016.0944.016.1415 0 .3616 0 .9275-.016 1.5248-.015.6131-.031 1.2576-.031 1.6977l.047 2.4994c0 .0472 0 .0943-.016.1572-.015.1415-.063.2672-.125.3615-.205.3302-.598.5817-1.165.7389l-4.924 1.3047c-.346.1257-.692.1729-1.022.1729zm-3.776-3.5212l2.612 2.1379c.298.2515 1.164.3772 1.887.1886l4.94-1.3047c.315-.0786.456-.1886.488-.2358l-.047-2.4522c0-.4559.015-1.1161.031-1.7449.016-.5345.032-1.0689.016-1.4147v-.0315l-2.596-2.1221-1.274.3773.849.7388c.158.1257.221.3458.173.5344-.047.2044-.204.3616-.393.4087l-2.501.6445c-.158.0472-.331 0-.472-.0943l-1.385-1.0375c-.173-.1414-.409-.1886-.629-.1257l-1.715.4716v5.0616h.016z" fill="#CCC"/><path d="M144.02 65.633l-.687.8601 3.013 2.4017.687-.8602-3.013-2.4016z" fill="#CCC"/><path d="M135.153 81.2539l2.281-.6602 7.441 5.1246 4.783-1.3676-7.457-5.1246 2.674-.7545-9.738-1.2733" fill="#00838D"/><path d="M168.882 94.5054c0-.0314-.016-.0472-.016-.0786.048-.4716-.125-.9117-.519-1.1947l-.015-.0157-10.572-7.1209c-.299-.2044-.803-.2673-1.18-.1572l-9.203 2.4365c-.504.1258-.614.4716-.63.6131v.0157c0 .0157-.015.0157-.015.0314v.0157l-.299 4.0871c-.016.2515.11.4873.346.6445l.33-.4716-.314.4716 10.902 7.3567c.661.44 1.825.629 3.146.629 1.4 0 2.973-.22 4.311-.566 1.117-.299 3.744-1.148 3.854-2.6095l-.126-4.0871z" fill="#fff"/><path d="M161.284 97.8537c-1.353 0-2.549-.1887-3.241-.6603l-11.233-7.561c-.267-.1729-.393-.4559-.346-.7388.047-.2987.299-.5502.645-.6445l9.471-2.5151c.346-.0944.881-.0629 1.227.1729l10.871 7.3252c.015 0 .015.0157.031.0157.441.3302.629.8332.519 1.3834-.22 1.1003-1.557 2.1064-3.524 2.6251-1.368.3773-2.989.5974-4.42.5974zm-13.042-8.6772l10.462 7.0423c.849.5659 3.807.676 6.701-.0943 1.935-.5187 2.596-1.3519 2.659-1.7134.016-.11 0-.1572-.063-.2044l-10.855-7.3252c-.031-.0157-.189-.0315-.267-.0158l-8.637 2.3108zm13.042 7.0423c-.74 0-1.4-.11-1.794-.3772-.33-.2201-.487-.5659-.425-.9275.142-.8174 1.401-1.3204 2.439-1.6034 1.557-.4087 3.555-.5344 4.389.0157.33.2201.488.5659.425.9118-.142.8174-1.4 1.3204-2.439 1.6034-.818.2358-1.762.3772-2.595.3772zm-1.133-1.3518l-.33.4873.33-.4873zm.315.11c.597.1257 1.825.0943 3.099-.2515.645-.1729 1.07-.3616 1.321-.5188-.613-.1257-1.825-.0943-3.099.2515-.645.173-1.07.3616-1.321.5188z" fill="#000"/><path d="M160.969 102.067c-1.353 0-2.549-.189-3.225-.661l.661-.974c.849.566 3.807.676 6.701-.095 2.297-.6127 3.068-1.3672 3.1-1.5716l-.063-2.4994c-.535.3616-1.306.7074-2.407 1.0061-2.659.7074-6.262.8803-7.662-.0629l.661-.9746c.85.5816 3.807.6759 6.702-.0943 2.061-.5502 2.659-1.2733 2.674-1.572.032-.3144.299-.5816.598-.5502.315 0 .566.2673.582.5817l.11 4.2128c-.11 1.5094-2.816 2.3734-3.964 2.6884-1.4.345-3.021.566-4.468.566z" fill="#000"/><path d="M147.166 92.8709l-.66.9774 11.229 7.5687.66-.978-11.229-7.5681z" fill="#000"/><path d="M146.511 93.8452c-.236-.1572-.377-.4087-.361-.6759l.314-4.2129c.032-.3301.315-.5659.629-.5501.331.0157.567.2986.551.6287.016-.1729-.079-.3301-.173-.3772l-.236.3615.409.0315-.315 4.2128c.016-.1887-.078-.3301-.157-.3773l-.661.9589zM156.879 88.2334c.031.0157.063.0472.078.0629.173.1257.315.2515.425.393.079.0786.126.1729.173.2672.063.1258.095.2515.11.3615l-.015.173-.016.0786c-.032.1257-.11.2515-.236.3772-.11.1258-.268.2201-.456.3301l-.189.0944v.0157l.519.3458.205-.0314c.188-.0315.393-.0315.582-.0472h.519l.472.0314.346.0472c.252.0314.472.0786.708.1415.236.0471.456.1257.676.1886.142.0472.268.11.409.1572l.283.1415.221.11.126.0786.173.1258.141.1257-.189.0157c-.188.0158-.393.0158-.582.0315l-.204.0157-.079-.0314-.047-.0315c-.173-.11-.362-.2043-.566-.2986-.142-.0629-.284-.1101-.425-.1572-.189-.0472-.393-.0944-.582-.1415l-.268-.0315c-.22-.0314-.44-.0471-.66-.0471-.189 0-.378 0-.535.0314h-.048l.032.0157.393.2673.173.1729-.314.0157c-.205.0157-.425.0157-.645.0157l-.126-.0314-.362-.2515-.11.0471c-.11.0629-.189.1415-.268.2201l-.094.1415-.031.0943c-.032.0943-.048.2044-.016.2987.016.0943.063.1729.126.2515.047.0786.126.1572.22.2358l.189.1415.063.0471c-.111.0786-.205.1415-.299.2044-.079.0628-.158.11-.221.1729l-.125-.0629c-.063-.0314-.142-.0786-.205-.1258-.031-.0157-.047-.0314-.079-.0628l-.204-.1572c-.079-.0786-.157-.1572-.236-.2358-.094-.0943-.157-.1887-.189-.2987-.063-.11-.094-.2358-.094-.3458v-.1887l.031-.1257c.032-.0786.079-.1729.142-.2515.078-.0786.141-.1415.252-.2201.11-.0786.236-.1572.393-.2358l.047-.0157.016-.0314-.519-.3459c-.221.0315-.441.0472-.677.0629h-.598l-.456-.0314-.362-.0472c-.173-.0314-.346-.0629-.519-.0943-.189-.0472-.393-.0943-.566-.1415-.22-.0629-.441-.1415-.63-.2358l-.314-.1414-.283-.1572-.126-.0944-.189-.1414-.063-.0472.016-.0157c.204-.0157.425-.0157.629-.0157l.378-.0158.157.1101c.11.0786.236.1257.378.1886.267.1101.582.2044.912.2672l.299.0472c.22.0314.456.0472.661.0472.188 0 .393-.0158.566-.0315l.031-.0157-.393-.2672-.189-.1729-.015-.0158-.032.0472.283-.0157.645-.0315h.095l.063.0158c.126.0786.251.1729.377.2515l.032.0157.063-.0314c.204-.0944.33-.2044.424-.3302l.095-.1886c0-.0786.016-.1572 0-.2515-.032-.0786-.063-.1729-.126-.2515-.063-.0629-.11-.1415-.189-.2044l-.204-.1572-.032-.0314v-.0157l.173-.1101.189-.1414.142-.0943.063.0314c.11.0629.188.11.283.1729z" fill="#000"/><path d="M103.799 91.2672c-.157.0315-.314.1258-.44.2672-.331.3773-.614.7703-.818 1.2262-.331.6602-.52 1.3518-.598 2.0749-.047.5345-.016 1.0375.063 1.5091.094.4716.251.9117.487 1.3047.173.2672.378.5345.598.7231.205.1729.441.3301.708.4402.299.1257.582.1886.881.1886h.378l.44-.0786.079-.0314c.267-.0786.503-.173.708-.2987.488-.283.928-.6602 1.306-1.1318.283-.3301.519-.7231.708-1.1475.283-.5974.456-1.2104.519-1.8078.063-.5973.047-1.1475-.063-1.6662-.095-.4559-.252-.8646-.472-1.2262-.189-.3301-.456-.6287-.755-.8488-.126-.0943-.284-.1258-.425-.0943-.142.0314-.299.11-.425.2358-.189.2043-.315.4873-.315.7702-.015.283.079.5345.252.676.283.2515.472.503.598.8016.173.4088.22.8646.173 1.3834-.047.4558-.173.8803-.409 1.3047-.22.4087-.503.7388-.849.9746-.252.1729-.52.2987-.787.3458-.126.0315-.236.0315-.362.0315-.283-.0158-.566-.1101-.802-.283-.236-.1729-.425-.4087-.567-.7231-.157-.3301-.22-.6916-.236-1.1004 0-.613.158-1.1789.472-1.7134.111-.1729.236-.3458.409-.5659.173-.1886.252-.4558.268-.7231 0-.2672-.079-.503-.236-.6445-.157-.1729-.33-.2043-.488-.1729z" fill="#CCC"/><path d="M105.341 89.601c-.142.0157-.252.1572-.346.2829-.079.0943-.158.2201-.189.3458-.11.393-.079.8332-.094 1.2262-.016.4558-.032.9274-.048 1.399-.015.393-.015.7702 0 1.1632.016.2515.048.5188.236.676.189.1729.488.1729.708.0471.221-.1257.362-.3615.425-.5973.063-.2515.079-.503.079-.7545.015-.8489.047-1.6977.063-2.5466 0-.1572.015-.2987 0-.4559-.016-.1572-.032-.2986-.095-.4401-.031-.0629-.063-.1258-.11-.1729-.047-.0315-.173-.1887-.377-.2044-.079.0157-.158.0157-.252.0315z" fill="#CCC"/></g><defs><clipPath id="clip0"><path fill="#fff" d="M0 0h223v117H0z"/></clipPath></defs></svg>