<svg width="109" height="87" fill="none" xmlns="http://www.w3.org/2000/svg"><path d="M52.8739 86.1521c-.6231-.3126-1.2549-.5991-1.8607-.9291-2.8558-1.5543-4.2665-4.854-3.4789-8.0842.7529-3.0826 3.7299-5.3403 6.9838-5.3056 3.1674.0348 6.0579 2.3011 6.7935 5.3056.7875 3.2389-.6231 6.5212-3.4789 8.0755-.6058.33-1.2376.6252-1.8607.9291h-3.0981v.0087zM54.7431.117188C70.1301.334272 84.5479 4.63255 97.3214 14.0367c3.8076 2.8047 7.2086 6.0349 10.3156 9.5951.874 1.0073.866 1.0333-.06 1.9798-2.225 2.2403-4.449 4.4806-6.69 6.7123-.814.8075-.857.8162-1.5924-.0695-3.3232-3.9943-7.1397-7.4243-11.4754-10.2811-7.3647-4.8627-15.4304-7.8585-24.1451-9.1436-12.0119-1.7628-23.5825-.2345-34.6684 4.7324-7.3906 3.3084-13.7687 8.0148-19.0391 14.206-.2077.2432-.44137.4776-.61445.7468-.42406.6252-.78752.4429-1.22023-.0087-2.35392-2.3879-4.70785-4.7758-7.10504-7.1117-.64041-.6165-.527903-1.0333.01731-1.5717 2.42315-2.4053 4.69054-4.9842 7.27813-7.1898C17.487 8.83531 28.071 3.95525 39.8407 1.61941 44.6437.646874 49.49.195338 54.7431.117188z" fill="#E6E7E8"/><path d="M53.9816 24.8909c13.9418.3386 25.8239 4.689 35.4559 14.5099.7097.7207 1.2808 1.5891 1.9126 2.3793-.6145.6512-1.2289 1.3198-1.8607 1.9624-1.8606 1.8756-3.7212 3.7512-5.5992 5.6095-.8221.8075-.8481.8075-1.5923-.0521-5.1406-5.9655-11.5966-9.7775-19.2468-11.3926-11.3975-2.414-21.9902-.4863-31.4232 6.582-1.8433 1.3806-3.401 3.1347-5.0453 4.7671-.8568.851-.8308.9118-1.601.1564-2.328-2.3185-4.6213-4.6717-6.9753-6.9641-.6404-.6252-.4759-1.0073.0173-1.5717 2.6828-3.0913 5.755-5.7224 9.1648-7.9453 6.6983-4.3678 14.0456-6.8946 21.9901-7.6588 1.7308-.1736 3.4617-.2778 4.8031-.382z" fill="#E6E7E8"/><path d="M52.9431 48.2057c8.2387.0869 14.3831 2.1622 19.6622 6.6168.6836.5818 1.3327 1.2157 1.9471 1.8756.952 1.016.9606 1.0594.026 2.0059-2.2587 2.2924-4.5521 4.5501-6.8022 6.8598-.5625.5818-.874.6774-1.4539-.0607-4.9415-6.2434-15.638-7.1465-22.0939-1.7888-.6837.5731-1.3068 1.2504-1.852 1.9538-.4673.5991-.7702.4428-1.2029.0086-2.354-2.3792-4.6992-4.7672-7.0964-7.103-.7183-.6947-.5106-1.1462.0605-1.754 3.3405-3.5515 7.3561-6.061 12.0206-7.3549 2.6482-.738 5.4175-1.0159 6.7849-1.2591z" fill="#E6E7E8"/></svg>