<svg width="224" height="158" viewBox="0 0 224 158" fill="none" xmlns="http://www.w3.org/2000/svg">
<path d="M117.919 144.819C114.331 144.819 110.743 144.134 107.382 142.747L38.9808 114.735C36.9854 114.033 35.5677 112.013 35.4802 109.695C35.3927 107.535 36.4428 105.691 38.2282 104.918C38.3157 104.883 38.4032 104.848 38.4907 104.83L139.273 78.452C141.321 77.5915 143.579 77.451 145.802 78.0656C145.872 78.0832 145.942 78.1183 146.012 78.1359L220.522 109.59C222.395 110.169 223.76 111.908 223.97 114.05C224.18 116.123 223.287 117.932 221.624 118.792C221.502 118.845 221.379 118.898 221.257 118.933L125.41 143.766C122.978 144.486 120.44 144.819 117.919 144.819ZM39.5234 108.202C38.9633 108.518 38.9633 109.309 38.9633 109.555C38.9983 110.292 39.3658 111.17 40.1535 111.434C40.1885 111.451 40.2235 111.451 40.2585 111.469L108.713 139.498C113.701 141.535 119.319 141.851 124.5 140.394L220.137 115.614C220.557 115.28 220.504 114.577 220.487 114.437C220.417 113.822 220.084 113.12 219.472 112.962C219.402 112.944 219.332 112.909 219.262 112.891L144.769 81.4376C143.316 81.0512 141.846 81.1566 140.533 81.7361C140.446 81.7712 140.358 81.8064 140.271 81.8239L39.5234 108.202Z" fill="black"/>
<path d="M94.8154 126.573C92.2774 126.573 89.7395 126.098 87.3066 125.132L51.7755 111.012C50.8828 110.661 50.4278 109.643 50.7953 108.729C51.1454 107.834 52.1606 107.377 53.0707 107.746L88.5843 121.866C91.8924 123.183 95.4805 123.411 98.9286 122.551L180.492 103.742C180.51 103.742 180.563 103.724 180.58 103.601C180.58 103.478 180.528 103.461 180.475 103.443L143.421 88.8314C142.528 88.4801 142.073 87.4615 142.441 86.5483C142.791 85.6526 143.806 85.196 144.716 85.5648L181.788 100.194C183.293 100.809 184.186 102.249 184.081 103.847C183.976 105.463 182.89 106.762 181.315 107.149L99.7512 125.958C98.1234 126.362 96.4781 126.573 94.8154 126.573Z" fill="black"/>
<path d="M38.2807 108.273C37.5806 108.273 36.8629 108.115 36.1803 107.816C34.6226 107.114 33.3973 105.691 32.8372 103.917L32.7497 103.496L28.0764 29.5767C27.5688 24.4134 29.6867 22.5518 31.5595 21.8845L31.7696 21.8318L134.337 0.247882C135.632 -0.17361 137.033 -0.050674 138.31 0.564002C139.868 1.31918 141.111 2.77683 141.723 4.55061L141.811 4.81404V5.09505L142.774 74.852C142.896 76.8892 143.089 80.6124 139.816 82.0525L139.553 82.1403L40.066 107.922C39.4884 108.15 38.8933 108.273 38.2807 108.273ZM36.2328 103.022C36.5129 103.742 37.0204 104.339 37.6156 104.602C37.9131 104.725 38.3507 104.848 38.8058 104.637L39.0683 104.55L138.555 78.7683C139.063 78.5049 139.483 77.9078 139.308 75.01V74.9222L138.345 5.42872C138.013 4.63842 137.47 4.02375 136.805 3.69007C136.472 3.53201 135.947 3.37395 135.387 3.56713L135.16 3.61982L32.6097 25.2037C32.1721 25.3793 31.2445 25.9589 31.5595 29.2606L36.2328 103.022Z" fill="black"/>
<path d="M39.4359 101.23C38.7707 101.529 37.9656 101.055 37.7031 100.229L33.5723 28.593C33.4498 28.2066 33.6073 27.7851 33.9224 27.6798L135.562 6.28904C135.597 6.27148 135.632 6.27147 135.667 6.25391C135.912 6.21878 136.245 6.37685 136.385 6.76321L136.787 74.2722C136.787 74.2722 136.77 76.5553 135.86 76.9592L39.4359 101.23Z" fill="black"/>
<path d="M33.8268 117.262L33.89 120.04L25.8584 126.922L25.9722 132.743L34.0085 125.844L34.0606 129.096L38.4219 118.461" fill="#00838D"/>
<path d="M7.20229 141.844C7.60799 140.314 8.18002 139.018 8.92136 138.376L20.8477 127.937C21.1236 127.686 21.4816 127.628 21.7877 127.767C22.1116 127.91 22.3208 128.27 22.3237 128.69L22.3306 140.159C22.3335 140.579 22.1376 141.174 21.7669 141.495L10.216 151.596C10.2113 151.614 10.1935 151.609 10.1888 151.627C9.68304 152.026 9.05707 152.089 8.46737 151.799C7.28796 151.22 6.55025 149.405 6.55279 147.025C6.5362 145.363 6.773 143.464 7.20229 141.844ZM20.9343 129.693L9.82634 139.416C8.93108 140.207 7.91965 143.52 7.92345 147.026C7.93035 149.371 8.6752 150.369 9.06555 150.548C9.18538 150.599 9.24348 150.595 9.31572 150.538L20.8619 140.455C20.8891 140.424 20.9541 140.251 20.9599 140.157L20.9343 129.693ZM9.05268 142.335C9.2744 141.498 9.59708 140.784 10.0175 140.419C10.3656 140.111 10.8042 140.037 11.1946 140.217C12.0773 140.622 12.2693 142.197 12.2782 143.456C12.2738 145.341 11.817 147.639 10.9442 148.417C10.5961 148.725 10.1575 148.799 9.7849 148.624C8.90217 148.219 8.71022 146.644 8.70131 145.385C8.67973 144.388 8.80266 143.278 9.05268 142.335ZM10.9225 141.459L10.47 140.939L10.9225 141.459ZM10.7036 141.782C10.382 142.421 10.0496 143.818 10.0589 145.364C10.0612 146.145 10.1473 146.682 10.2498 147.014C10.5761 146.358 10.9038 144.978 10.8944 143.433C10.8921 142.651 10.806 142.114 10.7036 141.782Z" fill="black"/>
<path d="M2.52837 140.225C2.93407 138.694 3.5061 137.398 4.24272 136.774L5.14771 137.814C4.25244 138.605 3.24102 141.918 3.24482 145.424C3.24997 148.207 3.87284 149.305 4.0947 149.402L6.94253 150.081C6.69371 149.367 6.53343 148.391 6.5256 147.056C6.5222 143.836 7.40679 139.708 8.89417 138.407L9.79916 139.447C8.8861 140.233 7.89247 143.551 7.89627 147.057C7.90101 149.554 8.54019 150.447 8.87353 150.554C9.21994 150.684 9.4422 151.067 9.31699 151.396C9.22264 151.752 8.84469 151.956 8.48413 151.88L3.6828 150.741C2.00777 150.163 1.8406 146.843 1.82913 145.449C1.85756 143.761 2.09437 141.862 2.52837 140.225Z" fill="black"/>
<path d="M17.0754 127.367L16.167 126.327L4.2334 136.761L5.14178 137.8L17.0754 127.367Z" fill="black"/>
<path d="M16.1693 126.334C16.4179 126.115 16.7451 126.03 17.0428 126.128L21.7168 127.748C22.081 127.882 22.263 128.273 22.1508 128.625C22.034 128.994 21.6429 129.176 21.274 129.059C21.465 129.129 21.6712 129.069 21.7529 128.976L21.4145 128.601L21.2562 129.054L16.5823 127.434C16.7911 127.509 16.9795 127.444 17.0565 127.37L16.1693 126.334Z" fill="black"/>
<path d="M19.4124 139.747C19.3852 139.778 19.3402 139.804 19.3176 139.817C19.1234 139.975 18.9386 140.098 18.7455 140.18C18.6329 140.245 18.512 140.27 18.3911 140.295C18.2299 140.329 18.0781 140.327 17.9489 140.312L17.7579 140.242L17.6736 140.201C17.5407 140.127 17.422 140.001 17.3174 139.82C17.2081 139.658 17.1485 139.452 17.0805 139.205L17.0304 138.963L17.0126 138.959L16.4655 139.442L16.4398 139.683C16.4187 139.906 16.3574 140.137 16.3186 140.356C16.2667 140.551 16.2148 140.747 16.1629 140.943L15.9858 141.468L15.8286 141.845C15.7176 142.12 15.5982 142.355 15.4562 142.603C15.3321 142.856 15.1771 143.082 15.0399 143.312C14.944 143.458 14.8351 143.582 14.7393 143.728L14.4943 144.006L14.3037 144.222L14.177 144.341L13.9827 144.499L13.7979 144.621L13.8368 144.403C13.8756 144.185 13.9369 143.953 13.9757 143.735L14.0193 143.499L14.0784 143.419L14.1282 143.375C14.3046 143.213 14.468 143.027 14.636 142.824C14.7497 142.683 14.8455 142.537 14.9413 142.391C15.0513 142.191 15.166 141.974 15.276 141.775L15.3918 141.482C15.4934 141.242 15.5773 140.997 15.6433 140.748C15.6999 140.535 15.7565 140.321 15.7681 140.134L15.7823 140.08L15.755 140.111L15.3346 140.476L15.087 140.62L15.1636 140.259C15.2071 140.023 15.2732 139.774 15.3392 139.525L15.4125 139.392L15.8057 139.058L15.7854 138.919C15.7472 138.776 15.6818 138.663 15.6165 138.55L15.4846 138.401L15.3873 138.337C15.29 138.273 15.1702 138.223 15.054 138.23C14.9425 138.219 14.8394 138.249 14.7316 138.297C14.6285 138.327 14.5159 138.392 14.3986 138.475L14.1819 138.646L14.1097 138.704C14.0537 138.555 14.0109 138.43 13.968 138.304C13.9204 138.196 13.8906 138.093 13.8383 138.003L13.9472 137.879C14.0017 137.818 14.0786 137.743 14.1509 137.686C14.1781 137.655 14.2006 137.642 14.2457 137.616L14.4849 137.431C14.5974 137.366 14.71 137.301 14.8225 137.235C14.9576 137.157 15.0832 137.114 15.2172 137.111C15.3606 137.073 15.5124 137.075 15.6369 137.108L15.8504 137.165L15.9833 137.238C16.0629 137.297 16.1555 137.379 16.2256 137.474C16.2909 137.586 16.3432 137.676 16.3992 137.825C16.4551 137.973 16.5063 138.139 16.5481 138.34L16.5518 138.398L16.5826 138.426L17.1297 137.942C17.1602 137.683 17.2084 137.43 17.2614 137.158C17.3227 136.926 17.3841 136.695 17.4407 136.481L17.6131 135.975L17.7749 135.58C17.8624 135.393 17.9499 135.207 18.0374 135.021C18.1474 134.821 18.2621 134.604 18.3673 134.422C18.5045 134.192 18.6596 133.966 18.8229 133.781L19.0774 133.468L19.3402 133.194L19.4847 133.08L19.7015 132.909L19.7737 132.852L19.7868 132.875C19.7432 133.111 19.6772 133.36 19.6159 133.591L19.5205 134.023L19.3487 134.168C19.2267 134.269 19.1356 134.397 19.022 134.539C18.8173 134.808 18.6162 135.136 18.4459 135.491L18.3029 135.815C18.2013 136.054 18.1127 136.317 18.0514 136.548C17.9948 136.762 17.9513 136.998 17.9172 137.198L17.9255 137.239L18.3459 136.874L18.5982 136.712L18.6208 136.699L18.5768 136.649L18.5097 136.974L18.3519 137.714L18.3236 137.82L18.2869 137.887C18.1602 138.006 18.0157 138.12 17.889 138.238L17.8618 138.269L17.8785 138.35C17.9239 138.61 18.0107 138.785 18.1248 138.93L18.31 139.093C18.3989 139.117 18.4832 139.158 18.5946 139.168C18.693 139.156 18.8092 139.149 18.917 139.101C19.0071 139.049 19.1102 139.019 19.205 138.949L19.4442 138.765L19.4892 138.739L19.507 138.744L19.5797 138.972L19.6832 139.228L19.7475 139.417L19.693 139.479C19.5888 139.584 19.5119 139.659 19.4124 139.747Z" fill="black"/>
</svg>
