<svg width="24" height="19" fill="none" xmlns="http://www.w3.org/2000/svg"><path fill-rule="evenodd" clip-rule="evenodd" d="M14.6953 7.85758l-3.7851 3.78512-1.60346-1.6035c-.32235-.30037-.82466-.29151-1.13621.02-.31155.3116-.32041.8139-.02005 1.1363l2.18162 2.1816c.3194.319.8368.319 1.1563 0l4.3632-4.36327c.2189-.20395.309-.5111.2349-.80097-.074-.28986-.3003-.5162-.5902-.59023-.2899-.07403-.597.01607-.801.23495z" fill="#94CBCF"/><path fill-rule="evenodd" clip-rule="evenodd" d="M19.3913 7.38854C18.715 4.54698 16.6643.800049 12.0011.800049c-3.56696 0-5.31771 1.603491-6.15763 2.950641-.32297.51934-.5674 1.08357-.72539 1.67439C2.88192 6.06321.0021848 7.87395.0021848 11.7081-.070031 14.5052 1.654 17.0352 4.28361 17.9912c1.24024.5031 2.56159.7767 3.89965.8072h7.63564C18.6496 18.7984 24 17.544 24 12.799c0-3.55608-2.3125-5.09413-4.6087-5.41046zm-3.5724 9.77366H8.18327s-6.54486 0-6.54486-5.4541c0-4.36319 4.90865-4.9086 4.90865-4.9086s0-4.36324 5.45404-4.36324c5.4541 0 5.9995 6.54486 5.9995 6.54486.1507-.00843.3019-.00843.4526 0 1.0909 0 3.9106.34906 3.9106 3.81788 0 4.3632-6.5449 4.3632-6.5449 4.3632z" fill="#94CBCF"/></svg>