<svg width="37" height="40" fill="none" xmlns="http://www.w3.org/2000/svg"><path fill-rule="evenodd" clip-rule="evenodd" d="M29.3983 10.7886C28.373 6.4806 25.264.800049 18.1943.800049c-5.4077 0-8.0619 2.430981-9.33529 4.473331a9.409827 9.409827 0 00-1.09972 2.53847C4.36915 8.77928.003312 11.5245.003312 17.3373c-.109483 4.2405 2.504238 8.0762 6.490878 9.5255 1.88026.7627 3.88351 1.1774 5.91211 1.2237h.8268v-2.4806h-.8268s-9.9224 0-9.9224-8.2686c0-6.6149 7.44177-7.44176 7.44177-7.44176s0-6.6149 8.26863-6.6149c8.2686 0 9.0955 9.92236 9.0955 9.92236.2286-.0128.4577-.0128.6863 0 1.6537 0 5.9286.5292 5.9286 5.788 0 6.6149-9.9224 6.6149-9.9224 6.6149h-1.6537v2.4806h1.6537c4.2915 0 12.403-1.9018 12.403-9.0955 0-5.3911-3.5059-7.7229-6.987-8.2024z" fill="#00838D"/><path fill-rule="evenodd" clip-rule="evenodd" d="M13.2168 31.8075c-.2074-.2429-.5077-.387-.8269-.3968-.3084-.0027-.6054.1161-.8269.3307-.5.4681-.5259 1.2529-.0578 1.7529l4.9611 5.3747c.7473.4414 1.6755.4414 2.4227 0l5.3747-5.4739c.4836-.4842.4836-1.2687 0-1.7529-.524-.4884-1.3365-.4884-1.8605 0l-3.3488 3.3074V17.5524c0-.685-.5553-1.2403-1.2403-1.2403-.685 0-1.2403.5553-1.2403 1.2403v17.976l-3.357-3.7209z" fill="#00838D"/></svg>