<svg width="14" height="24" fill="none" xmlns="http://www.w3.org/2000/svg"><path d="M13.0559 4.47459h-2.7843c-.28832 0-.52207.23368-.52207.52206v2.6451c0 .28838.23375.52206.52207.52206h.5917v2.27929l-3.06279 1.4376V3.84952h1.23742c.1963 0 .37602-.11012.46519-.28505.0891-.17492.0726-.385-.04281-.54384L7.42234.215227C7.32412.079979 7.16708 0 7.00002 0c-.16712 0-.32416.07998-.42238.215227L4.53974 3.02063c-.11541.15884-.13191.36899-.04281.54384.08917.17493.26882.28505.46519.28505h1.23742v9.65278l-3.06275-1.4376V9.37999c.65675-.3037 1.11373-.96838 1.11373-1.73817 0-1.05547-.85868-1.91422-1.91422-1.91422-1.05553 0-1.914211.85875-1.914211 1.91422 0 .76979.456975 1.4344 1.113721 1.73817v3.19321c0 .3104.17938.5928.46039.7247l4.20334 1.973v3.1346c-1.18556.347-2.05427 1.4435-2.05427 2.7398 0 1.5741 1.28064 2.8548 2.85475 2.8548 1.57419 0 2.8549-1.2806 2.8549-2.8548 0-1.2963-.86871-2.3928-2.05441-2.7398v-4.7561l4.20339-1.973c.281-.132.4603-.4143.4603-.7247V8.16387h.5917c.2883 0 .5221-.23367.5221-.52205v-2.6451c0-.28838-.2338-.52213-.5221-.52213z" fill="#94CBCF"/></svg>