<svg width="125" height="92" fill="none" xmlns="http://www.w3.org/2000/svg"><path d="M57.6148 92c-2.2792 0-4.5583-.4351-6.693-1.3163L7.47337 72.8908c-1.26743-.4462-2.16798-1.7291-2.22357-3.2016-.05559-1.3721.61149-2.5435 1.74551-3.0343.05559-.0223.11117-.0446.16676-.0558L71.1785 49.8437c1.3008-.5466 2.735-.6359 4.147-.2454.0445.0111.0889.0334.1334.0446l47.3281 19.9793c1.19.3682 2.057 1.4725 2.191 2.8335.133 1.3163-.434 2.4654-1.49 3.012-.078.0334-.156.0669-.234.0892L62.3732 91.3307c-1.5454.4573-3.1575.6693-4.7584.6693zM7.81802 68.741c-.35577.2007-.35576.7027-.35576.8589.02223.4686.2557 1.0263.756 1.1937.02224.0111.04449.0111.06672.0223l43.48182 17.804c3.1686 1.294 6.7374 1.4948 10.0283.5689l60.7479-15.7403c.267-.2119.233-.6581.222-.7474-.044-.3904-.255-.8366-.645-.937-.044-.0112-.089-.0335-.133-.0447L74.6695 51.7401c-.9227-.2454-1.8567-.1785-2.6905.1897-.0556.0223-.1112.0446-.1668.0557L7.81802 68.741z" fill="#000"/><path d="M42.9393 80.4096c-1.6121 0-3.2242-.3012-4.7696-.9148l-22.5692-8.9689c-.567-.2231-.856-.8702-.6226-1.4502.2224-.569.8672-.859 1.4454-.6248l22.558 8.969c2.1013.8367 4.3805.9817 6.5707.4351l51.809-11.9475c.0111 0 .0445-.0111.0556-.0892 0-.0781-.0333-.0893-.0667-.1004l-23.5364-9.2814c-.567-.2231-.8561-.8701-.6226-1.4502.2223-.5689.8672-.8589 1.4453-.6247l23.5476 9.2925c.9561.3904 1.5231 1.3052 1.4564 2.3203-.0667 1.0263-.756 1.8519-1.7566 2.0973L46.0745 80.0191c-1.0339.2566-2.079.3905-3.1352.3905zM7.02878 68.7856c-.44471 0-.90054-.1005-1.33414-.2901-.98949-.4462-1.76774-1.3498-2.12351-2.4765l-.05559-.2677L.547079 18.7981C.224662 15.5184 1.56993 14.3359 2.75953 13.912l.13341-.0334L68.0434.168562c.8228-.26773 1.7122-.189641 2.5238.200798.9895.479683 1.7788 1.40558 2.168 2.53228l.0556.16733v.17849l.6115 44.30934c.0778 1.294.2001 3.659-1.879 4.5737l-.1667.0558L8.1628 68.5624c-.36689.1451-.7449.2232-1.13402.2232zm-1.30079-3.3355c.17789.4573.5003.8366.87831 1.004.189.0781.46695.1561.75602.0223l.16676-.0558L70.7228 50.0444c.3225-.1673.5893-.5466.4781-2.3872v-.0558l-.6115-44.14199c-.2112-.502-.5559-.89243-.9783-1.10439-.2113-.10039-.5448-.20079-.9006-.07808l-.1445.03346-65.13941 13.71c-.27794.1116-.86718.4797-.66706 2.5769l2.96846 46.8528z" fill="#000"/><path d="M7.76237 64.3123c-.42248.1896-.9339-.1116-1.10067-.6359l-2.62381-45.503c-.07782-.2454.02223-.5131.22235-.58L68.8215 4.00605c.0222-.01115.0445-.01116.0667-.02231.1557-.02231.3669.07809.4558.32351l.2557 42.88145s-.0111 1.4502-.5892 1.7068L7.76237 64.3123z" fill="#000"/><path d="M38.392 46.7314c-.1667-.0447-.3446-.0893-.5114-.1562-.7783-.2678-1.2007-1.0932-1.034-2.0303.1668-.8924.9228-1.6956 1.79-1.863.845-.1673 1.6455.2901 1.879 1.0821.2557.8478-.0779 1.8407-.8228 2.4319-.1556.1227-.3224.2454-.4892.3681-.2557.0558-.5336.1116-.8116.1674zM37.7806 22.8364c4.1024-.8143 8.0048-.4574 11.5403 1.4167 1.045.5578 2.0012 1.2606 2.8684 2.0638.2446.2231.2445.2343.0111.5466-.567.7474-1.1229 1.4948-1.7011 2.2422-.2112.2678-.2223.2789-.4224.0781-.9339-.9147-2.0012-1.651-3.1909-2.1864-2.0234-.9259-4.2136-1.2941-6.5595-1.149-3.2241.2008-6.2927 1.2828-9.1833 3.2908-1.9234 1.3387-3.5688 3.0008-4.8918 5.0199-.0556.0781-.1112.1562-.1556.2455-.1001.2008-.2002.1673-.3225.0669-.6559-.5243-1.3119-1.0486-1.9901-1.5618-.1779-.1338-.1556-.2565-.0111-.435.6115-.8032 1.1896-1.651 1.8456-2.4096 2.3458-2.6773 5.103-4.6295 8.2049-5.957 1.2674-.5466 2.5571-.9482 3.958-1.2717z" fill="#fff"/><path d="M37.8919 29.7304c3.7244-.7027 6.9486-.1784 9.6391 1.9857.2002.1562.3669.3681.5448.5466-.1556.212-.3113.4351-.467.6471-.4669.6247-.945 1.2494-1.423 1.8741-.2113.2677-.2224.2677-.4225.0781-1.4453-1.361-3.2242-2.0415-5.281-2.0526-3.0685-.0224-5.8702 1.1266-8.2939 3.6143-.4781.4797-.8672 1.0598-1.2785 1.6064-.2224.2789-.2113.3012-.4225.1339-.656-.502-1.2897-1.0263-1.9567-1.5283-.1779-.1339-.1446-.2455-.0112-.4351.6782-1.004 1.4565-1.9076 2.3348-2.7219 1.7344-1.5953 3.6577-2.7108 5.759-3.3801.467-.1339.9228-.2678 1.2786-.3682z" fill="#fff"/><path d="M37.9251 36.2341c2.2013-.4462 3.8579-.2231 5.3255.7028.189.1227.3668.2566.5447.4016.2668.2231.2668.2343.0334.5466-.5782.7586-1.1563 1.5171-1.7233 2.2869-.1445.1896-.2223.2343-.3891.0669-1.4008-1.439-4.2581-1.0821-5.9147.7697-.1779.2008-.3335.4239-.4669.6471-.1112.1896-.2001.1673-.3224.0669-.656-.5243-1.3119-1.0486-1.979-1.5618-.2001-.1562-.1557-.29-.0111-.4908.8449-1.1713 1.8789-2.0973 3.113-2.722.6893-.3346 1.423-.5689 1.7899-.7139z" fill="#fff"/></svg>