<svg width="29" height="32" fill="none" xmlns="http://www.w3.org/2000/svg"><path fill-rule="evenodd" clip-rule="evenodd" d="M26.6667 0H9.14286C8.35435.002688 7.6229.411606 7.20762 1.0819L1.11238 7.17714C.421141 7.59061-.001454 8.33739.0000038 9.14286V29.7143C.0000038 30.9767 1.02335 32 2.28572 32H26.6667c1.2623 0 2.2857-1.0233 2.2857-2.2857V2.28571C28.9524 1.02335 27.929 0 26.6667 0zM6.85723 4.66285v2.19429H4.66295l2.19428-2.19429zM26.6667 29.7143H2.28571V9.21908h.04572l.04571-.04572h6.76572V2.40765l.04571-.04572v-.04571H26.6362l.0305 27.39808z" fill="#2C405A"/><path fill-rule="evenodd" clip-rule="evenodd" d="M22.0953 17.5238H6.85721c-.63118 0-1.14285.5117-1.14285 1.1429 0 .6311.51167 1.1428 1.14285 1.1428H22.0953c.6312 0 1.1429-.5117 1.1429-1.1428 0-.6312-.5117-1.1429-1.1429-1.1429zM19.8096 22.8572H6.85721c-.63118 0-1.14285.5117-1.14285 1.1428 0 .6312.51167 1.1429 1.14285 1.1429H19.8096c.6312 0 1.1429-.5117 1.1429-1.1429 0-.6311-.5117-1.1428-1.1429-1.1428zM16.7618 14.4762h4.5714c1.2624 0 2.2857-1.0233 2.2857-2.2857V7.61909c0-1.26237-1.0233-2.28572-2.2857-2.28572h-4.5714c-1.2624 0-2.2857 1.02335-2.2857 2.28572v4.57141c0 1.2624 1.0233 2.2857 2.2857 2.2857zm.0001-6.85715h4.5714v4.57145h-4.5714V7.61905z" fill="#2C405A"/></svg>