<svg width="65" height="65" fill="none" xmlns="http://www.w3.org/2000/svg"><g filter="url(#filter0_d)"><circle cx="31" cy="27" r="27" fill="#D1E9EB"/></g><path d="M15.7008 37.2139c.3247 0 .6648.0158.9895 0 .6185-.0473 1.2369-.1735 1.8399-.3313 1.1906-.3312 2.3038-.8992 3.2779-1.6722.2783-.2208.5566-.4574.8195-.7098.5566-.568 1.0359-1.2147 1.4224-1.9089.3402-.6152.5876-1.2778.7731-1.9561.0155-.0473.0155-.1104.0309-.1578h-2.4274c-.5103 0-1.005-.0631-1.4998-.1735-.0464-.0158-.0928-.0315-.1392-.0315a.2132.2132 0 01-.0618-.0474c.1391-.3155.2628-.6152.3865-.9307l.9432-2.2243c.0309-.1105.0773-.2051.1391-.2998.0619-.0631.1547-.0946.2474-.0946.7576-.0158 1.4998 0 2.2574 0h.201c-.0309-.1262-.0309-.2209-.0618-.3313-.2783-1.0727-.7577-2.0666-1.4225-2.9342-.3247-.426-.6803-.8203-1.0668-1.199-.4794-.4574-1.0051-.8518-1.5926-1.1831a10.6724 10.6724 0 00-1.8863-.8519 9.8811 9.8811 0 00-1.6699-.3786c-.4483-.0473-.8813-.0631-1.3296-.0946-.1083 0-.2165-.0158-.3247-.0316a.1408.1408 0 01-.0928-.0946c-.1546-.3629-.3092-.7099-.4639-1.0728-.1855-.4259-.3556-.8518-.5411-1.262-.1392-.347-.2938-.6783-.4484-1.0412l.3247-.0946a11.3335 11.3335 0 012.0718-.0947c1.0978.0316 2.1956.2051 3.2779.4891.6803.1893 1.3606.4259 2.01.7099.9122.3943 1.7781.8834 2.5821 1.4671a27.308 27.308 0 011.0514.8361c.1546.1262.3092.2681.4638.4101.7731.7572 1.4534 1.6249 2.0255 2.5556.5721.9308.9895 1.9404 1.2678 2.9973.0928.3471.1547.7099.232 1.057.0154.0473.0618.0946.1237.0946h3.1386c.0619-.2524.1083-.5048.1547-.7572.1855-.7414.4329-1.4513.7421-2.1296a9.256 9.256 0 01.9123-1.6249c.3246-.4575.6648-.915 1.0359-1.3409.2783-.3313.5721-.6468.8813-.9308.6494-.5994 1.3451-1.1358 2.1028-1.609.773-.4891 1.577-.8835 2.4274-1.199.5876-.205 1.1751-.3944 1.7626-.5521.4484-.1104.8814-.1893 1.3452-.2524.3711-.0631.7576-.0947 1.1442-.1262.2473-.0158.4793-.0316.7267-.0316.371 0 .7267-.0157 1.0823 0 .3556.0158.7112.0947 1.0668.1578.0155 0 .0155.0158.0464.0473l-.2628.631c-.2784.6626-.5567 1.3252-.8504 2.0035-.1083.2366-.2165.4733-.3093.7257-.0618.1577-.2164.0946-.3247.1262a.739.739 0 01-.2628 0c-.9741.0157-1.9327.1577-2.8604.4259-.5875.1735-1.1596.3944-1.7008.6626a9.079 9.079 0 00-1.8554 1.2304c-.2319.2051-.4947.4102-.7112.6468a8.6758 8.6758 0 00-1.4225 1.9246 9.5656 9.5656 0 00-.7421 1.8457c-.0155.0474-.0155.1105-.0309.1578h.17c.804 0 1.6235-.0158 2.4275 0 .4793 0 .9586.0789 1.4225.2366.0154.0158.0309.0158.0464.0316l-.4484 1.0412c-.3093.7414-.6339 1.4828-.9432 2.2401-.0927.2208-.1546.2681-.402.2681h-2.2574c.0619.2209.1083.4102.1701.5995.2165.6626.5257 1.2936.9122 1.8773.232.347.4793.6625.7422.978.1546.1893.3247.3786.4948.5364a9.0826 9.0826 0 001.9172 1.4513c.5875.3471 1.2215.631 1.8709.8519.6184.2209 1.2678.3628 1.9326.4259.402.0316.8195.0631 1.2215.0947.1546.0158.3092.0158.4639.0315.0309.0158.0618.0316.0773.0631.2628.6311.5257 1.2621.804 1.8931.2164.5048.4329 1.0096.6648 1.546-.2164.0473-.4174.0946-.6339.1104-.5257.0316-1.0669.0631-1.5926.0631-.4793 0-.9586-.0473-1.4224-.1104-.6339-.0947-1.2833-.2051-1.9173-.3471a14.2667 14.2667 0 01-2.2264-.7572c-.8659-.3786-1.6699-.8361-2.4429-1.3882-.402-.2998-.7886-.6153-1.1751-.9308a7.3067 7.3067 0 01-.7113-.6783c-.4947-.5206-.9586-1.0727-1.3606-1.6722a12.7622 12.7622 0 01-1.0204-1.7984c-.3557-.7572-.603-1.5618-.7731-2.3821-.0309-.0789-.0464-.1735-.0619-.2524 0-.1577-.0773-.1893-.2164-.1893H29.276a11.8198 11.8198 0 01-.7421 2.4925c-.2783.6784-.6185 1.3251-1.0359 1.9246-.3247.4575-.6649.915-1.036 1.3409-.2628.3313-.5566.631-.8658.915-.4793.4259-.9896.8203-1.4998 1.2147-.6185.4417-1.2678.8361-1.9482 1.1516-.8194.3944-1.6698.7099-2.5356.9307-.4948.1262-.9896.2209-1.4844.2998-.4793.0788-.9586.1262-1.4379.1735a7.087 7.087 0 01-.8194 0c-.402 0-.8041-.0158-1.1906-.0316-.1391-.0157-.2783-.0315-.4175-.0631-.0773-.0157-.1082-.0473-.0618-.1419.3092-.7257.6339-1.4514.9432-2.177.1855-.4417.3556-.8519.5566-1.3094z" fill="#00838D"/><defs><filter id="filter0_d" x="0" y="0" width="62" height="62" filterUnits="userSpaceOnUse" color-interpolation-filters="sRGB"><feFlood flood-opacity="0" result="BackgroundImageFix"/><feColorMatrix in="SourceAlpha" values="0 0 0 0 0 0 0 0 0 0 0 0 0 0 0 0 0 0 127 0"/><feOffset dy="4"/><feGaussianBlur stdDeviation="2"/><feColorMatrix values="0 0 0 0 0 0 0 0 0 0 0 0 0 0 0 0 0 0 0.25 0"/><feBlend in2="BackgroundImageFix" result="effect1_dropShadow"/><feBlend in="SourceGraphic" in2="effect1_dropShadow" result="shape"/></filter></defs></svg>