<svg width="24" height="24" fill="none" xmlns="http://www.w3.org/2000/svg"><path fill-rule="evenodd" clip-rule="evenodd" d="M15.7973 4.25195c-2.0128 0-3.6445 1.6317-3.6445 3.6445s1.6317 3.64445 3.6445 3.64445 3.6445-1.63165 3.6445-3.64445-1.6317-3.6445-3.6445-3.6445zm0 5.46671c-1.0064 0-1.8222-.81585-1.8222-1.82225s.8158-1.82225 1.8222-1.82225c1.0064 0 1.8223.81585 1.8223 1.82225s-.8159 1.82225-1.8223 1.82225z" fill="#94CBCF"/><path fill-rule="evenodd" clip-rule="evenodd" d="M16.101 4e-7C11.7399 4e-7 8.20459 3.53534 8.20459 7.89641c-.00169.76318.10883 1.52247.328 2.25349L.532923 18.1496c-.710564.7114-.710564 1.864 0 2.5754l2.429667 2.4297c.71145.7106 1.86399.7106 2.57544 0l1.74936-1.7494.53453.5346c.71144.7105 1.86399.7105 2.57548 0l1.8222-1.8223c.7106-.7114.7106-1.864 0-2.5754l-.5467-.5467 1.6704-1.7008c2.9607 1.1046 6.2948.3377 8.4753-1.9494 2.1805-2.2871 2.7876-5.65397 1.5431-8.5586C22.1173 1.88206 19.261-.0009626 16.101 4e-7zm0 13.9705996c-1.1057-.0011-2.1899-.3058-3.1343-.8808l-3.85097 3.9178 1.82227 1.8223-1.82227 1.8222-1.82225-1.8222L4.2564 21.867l-2.42967-2.4297 8.83787-8.8379c-1.20783-2.43074-.6564-5.36782 1.3509-7.19493 2.0072-1.82711 4.9831-2.10071 7.2899-.67025 2.3067 1.43046 3.3845 4.21775 2.6401 6.82799-.7444 2.61019-3.1302 4.40979-5.8445 4.40839z" fill="#94CBCF"/></svg>