<svg width="24" height="24" fill="none" xmlns="http://www.w3.org/2000/svg"><g clip-path="url(#clip0)"><path d="M18.0559 4.47459h-2.7843c-.2883 0-.5221.23368-.5221.52206v2.6451c0 .28838.2338.52206.5221.52206h.5917v2.27929l-3.0628 1.4376V3.84952h1.2374c.1963 0 .3761-.11012.4652-.28505.0891-.17492.0726-.385-.0428-.54384L12.4223.215227C12.3241.0799793 12.1671 0 12 0c-.1671 0-.3241.0799793-.4224.215227L9.53974 3.02063c-.11541.15884-.13191.36899-.04281.54384.08917.17493.26882.28505.46519.28505h1.23738v9.65278l-3.06271-1.4376V9.37999c.65675-.3037 1.11373-.96838 1.11373-1.73817 0-1.05547-.85868-1.91422-1.91422-1.91422-1.05553 0-1.91421.85875-1.91421 1.91422 0 .76979.45697 1.4344 1.11372 1.73817v3.19321c0 .3104.17938.5928.46039.7247l4.2033 1.973v3.1346c-1.1855.347-2.05423 1.4435-2.05423 2.7398 0 1.5741 1.28063 2.8548 2.85473 2.8548 1.5742 0 2.8549-1.2806 2.8549-2.8548 0-1.2963-.8687-2.3928-2.0544-2.7398v-4.7561l4.2034-1.973c.281-.132.4603-.4143.4603-.7247V8.16387h.5917c.2883 0 .5221-.23367.5221-.52205v-2.6451c0-.28838-.2338-.52213-.5221-.52213z" fill="#94CBCF"/></g><defs><clipPath id="clip0"><path fill="#fff" d="M0 0h24v24H0z"/></clipPath></defs></svg>