<svg width="24" height="24" fill="none" xmlns="http://www.w3.org/2000/svg"><path fill-rule="evenodd" clip-rule="evenodd" d="M12 0C5.37258 0 0 5.37258 0 12c0 6.6274 5.37258 12 12 12 6.6274 0 12-5.3726 12-12 0-6.62742-5.3726-12-12-12zm10.3364 11.4545h-3.7909c-.1637-3.5836-1.6855-7.24905-4.2328-9.55087 4.5056 1.03745 7.779 4.93392 8.0237 9.55087zM10.9091 2.7872v8.6673H7.09091c.15818-3.42003 1.50545-6.75821 3.81819-8.6673zm0 10.3037v8.0346c-2.15455-1.8982-3.50728-4.98-3.81819-8.0346h3.81819zm1.6364 8.2855v-8.2855h4.3636c-.36 3.1036-1.9691 6.3764-4.3636 8.2855zm0-9.9218V2.55282c2.5745 1.90364 4.1836 5.45455 4.3636 8.90178h-4.3636zM9.35454 1.99086c-2.38909 2.26909-3.75273 5.83636-3.9 9.46364H1.66363c.24001-4.48864 3.34621-8.31081 7.69091-9.46364zM1.71817 13.0909h3.75819c.30545 3.3382 1.74 6.7364 4.05272 8.9564-4.23531-1.0401-7.36635-4.6203-7.83272-8.9564h.02181zm12.49093 9.0382c2.4901-2.3928 4.0386-5.6001 4.3636-9.0382h3.8182c-.5018 4.4655-3.8075 8.1074-8.2036 9.0382h.0218z" fill="#94CBCF"/></svg>