<svg width="179" height="48" fill="none" xmlns="http://www.w3.org/2000/svg"><path d="M21.2253 29.5989c-.1259.2917-.2406.56-.3564.8274-.2014.4668-.4027.9337-.6111 1.3995-.0252.0587-.005.082.0443.0911.091.0189.1832.0317.2758.0385.2588.0101.5185.0152.7783.0192.1787.0092.3578.0092.5366 0 .3141-.0273.6282-.0627.9393-.1124.3261-.0526.6523-.1103.9705-.1934a9.16534 9.16534 0 001.652-.6015 7.71534 7.71534 0 001.2685-.7382c.3343-.2471.6625-.5064.9766-.7767.2044-.1811.3945-.3779.5688-.5884.2346-.2785.4611-.5641.6705-.8608.2687-.385.4952-.7982.6755-1.2324a7.5014 7.5014 0 00.4843-1.6h2.0245c.0917 0 .141.0162.138.1216.006.0554.0178.11.0352.163.1109.5288.2815 1.0432.5084 1.5332.1867.404.408.791.6614 1.1564.2651.3821.5611.7414.885 1.0744.1485.1523.3047.2966.4681.4324.2487.2026.5034.4112.7611.5985a8.4443 8.4443 0 001.5867.8891c.4655.2081.9491.3726 1.4446.4912.4118.0921.8286.1671 1.2464.2278.3076.0439.6176.0686.9282.074.3453.006.6927-.0162 1.038-.0365.1389-.016.2767-.0404.4127-.0729-.15-.3403-.2939-.6633-.4349-.9874-.1741-.405-.3453-.8101-.5205-1.2151a.07414.07414 0 00-.0215-.026.07293.07293 0 00-.0308-.0135c-.1007-.0102-.2014-.0142-.302-.0213-.2668-.0182-.5336-.0334-.7994-.0577a5.76212 5.76212 0 01-1.2534-.2765 6.50508 6.50508 0 01-1.2192-.5438 6.10827 6.10827 0 01-1.2493-.9367 3.94423 3.94423 0 01-.3272-.3494c-.1672-.2025-.3323-.4121-.4803-.6298a5.1352 5.1352 0 01-.596-1.2091c-.0422-.1216-.0714-.2471-.1107-.3838h1.4759c.1631 0 .2013-.0304.2618-.1773.2013-.4789.4127-.9569.6191-1.4359.0956-.2218.1903-.4425.2869-.6653a.19762.19762 0 00-.0342-.0213 2.81425 2.81425 0 00-.9222-.1499c-.5265-.0111-1.0541 0-1.5816 0h-.1067a.72248.72248 0 01.0171-.1012c.1159-.4131.278-.8116.4833-1.1879a5.9404 5.9404 0 01.9292-1.2354c.1419-.1479.302-.2755.4601-.4051a5.77139 5.77139 0 011.2081-.7868 6.47177 6.47177 0 011.1124-.4304 7.03292 7.03292 0 011.8736-.2846c.0561.0072.113.0072.1691 0 .0715-.0212.1681.0223.2114-.08.0645-.1549.1349-.3038.2014-.4617.1846-.4274.3685-.855.5517-1.2831l.1741-.405c-.0161-.0142-.0231-.0243-.0312-.0253-.2315-.0345-.4631-.0811-.6966-.1013-.2336-.0203-.4722-.0061-.7048 0-.159 0-.3181.0061-.4761.0192-.2467.0203-.4944.0395-.74.077a8.22175 8.22175 0 00-.8719.1651c-.3876.1012-.7721.2146-1.1497.3493a8.3405 8.3405 0 00-1.5886.7717 8.7516 8.7516 0 00-1.3662 1.0309 6.82698 6.82698 0 00-.5748.5974c-.2346.2775-.4601.5641-.6705.8608a6.41535 6.41535 0 00-.592 1.045c-.2039.4422-.365.9031-.4812 1.3762-.0393.1611-.0705.3241-.1057.4882h-2.0427a.10624.10624 0 01-.0484-.0216.1079.1079 0 01-.0322-.0422c-.0553-.2259-.1006-.4547-.155-.6795-.1804-.6791-.4599-1.3276-.8296-1.9241a8.15515 8.15515 0 00-1.3158-1.6354 7.88269 7.88269 0 00-.302-.2654c-.2275-.1832-.452-.3706-.6876-.5417a8.65145 8.65145 0 00-1.6833-.9458 9.69425 9.69425 0 00-1.3088-.4537 9.94697 9.94697 0 00-2.1333-.32 6.9562 6.9562 0 00-1.346.0567 1.63092 1.63092 0 00-.2114.0587c.1007.2339.2013.4527.2919.6724.1168.2704.2316.5418.3484.8102.1007.2308.2013.4617.302.6906.0111.0253.0362.0567.0594.0607.0706.0121.1419.0195.2134.0223.288.0193.5769.0314.8648.0588.368.0416.7306.1214 1.0823.2379.4281.1347.8403.316 1.2292.5408.3749.2082.722.4634 1.033.7595.2465.2399.4769.4959.6896.7666.4314.5592.7454 1.2007.9232 1.8855.0191.0669.0282.1357.0443.2137h-1.5978a.23514.23514 0 00-.158.0648.68897.68897 0 00-.0926.1914l-.6152 1.4289-.2557.5974a.27543.27543 0 00.0443.0284.90105.90105 0 00.0896.0263c.32.0759.6478.1136.9766.1124h1.5725a.73652.73652 0 01-.0161.1013 5.9867 5.9867 0 01-.5084 1.2567 5.7837 5.7837 0 01-.9212 1.2193c-.1668.1638-.3437.317-.5295.4587-.6325.4979-1.3585.8624-2.1343 1.0714a6.45492 6.45492 0 01-1.2011.2157c-.2134.0192-.4279.005-.6463.005z" fill="#87C1C7"/><path d="M21.2253 29.5991c.2155 0 .4329.0141.6463 0a6.46166 6.46166 0 001.2011-.2157c.7759-.2091 1.5018-.5735 2.1343-1.0714.1859-.1417.3627-.2949.5295-.4588.3614-.3655.6725-.7779.9253-1.2263a5.9867 5.9867 0 00.5084-1.2567.76828.76828 0 00.0161-.1013h-1.5766a4.1648 4.1648 0 01-.9765-.1124.90105.90105 0 01-.0896-.0263.2669.2669 0 01-.0443-.0284l.2557-.5974.6161-1.4279a.68897.68897 0 01.0926-.1914.2352.2352 0 01.1581-.0648c.4893-.005.9795 0 1.4688 0h.1289c-.0161-.0779-.0252-.1468-.0443-.2136-.1778-.6849-.4918-1.3264-.9232-1.8856a7.77037 7.77037 0 00-.6896-.7666 5.06503 5.06503 0 00-1.0329-.7595 6.13365 6.13365 0 00-1.2293-.5407 5.34682 5.34682 0 00-1.0822-.238c-.288-.0274-.5769-.0395-.8648-.0588a1.65529 1.65529 0 01-.2115-.0283c-.0231 0-.0483-.0355-.0594-.0608-.1006-.2288-.2013-.4597-.302-.6906-.1168-.2704-.2315-.5418-.3483-.8101-.0946-.2198-.1903-.4385-.292-.6724.0691-.0243.1397-.044.2114-.0588a6.96517 6.96517 0 011.3461-.0567 9.94819 9.94819 0 012.1282.3241c.4465.1198.8838.2714 1.3088.4536a8.6571 8.6571 0 011.6833.9459c.2356.1711.4601.3584.6876.5417.1007.0841.2014.1722.302.2654a8.15866 8.15866 0 011.3179 1.6313c.3696.5966.6492 1.245.8295 1.9241.0574.2248.1007.4537.1551.6795.007.0166.018.0311.0321.0423a.10714.10714 0 00.0484.0215h2.0427c.0352-.1641.0664-.3271.1057-.4881.1166-.4708.2778-.9292.4812-1.3691.1643-.3663.3625-.7162.592-1.0451.2104-.2967.4359-.5833.6705-.8607a6.8147 6.8147 0 01.5749-.5975 8.7523 8.7523 0 011.3661-1.0309 8.34109 8.34109 0 011.5836-.7727c.3776-.1346.7621-.2491 1.1497-.3493.2875-.0707.5785-.1258.8719-.1651.2456-.0375.4933-.0567.7399-.077.1581-.0131.3172-.0172.4762-.0192.2366 0 .4742-.0142.7048 0 .2305.0142.4651.0628.6966.1013.0081 0 .0151.0111.0312.0253l-.1741.4051c-.1833.4286-.3672.8563-.5517 1.283-.0665.1549-.1369.3038-.2014.4618-.0433.1012-.1399.0587-.2114.08a.6739.6739 0 01-.1691 0c-.632.0074-1.2601.1-1.8675.2754a6.46962 6.46962 0 00-1.1125.4304 5.77398 5.77398 0 00-1.2081.7868c-.155.1347-.3181.2623-.4601.4051a5.9404 5.9404 0 00-.9292 1.2354 5.68885 5.68885 0 00-.4833 1.1879.73738.73738 0 00-.0171.1012h.1067c.5276 0 1.0551-.0081 1.5816 0 .3136-.0018.6252.0489.9222.1499a.20232.20232 0 01.0343.0213c-.1007.2228-.1913.4435-.287.6653-.2063.479-.4147.957-.6191 1.4359-.0634.1469-.1007.1773-.2618.1773H34.9c.0392.1367.0684.2622.1107.3838.1448.4277.3452.8343.596 1.2091.148.2177.3131.4243.4802.6298.102.123.2113.2397.3272.3494.375.3646.7949.6794 1.2494.9367.3869.2227.7954.4049 1.2192.5438.4063.1386.8267.2313 1.2534.2765.2658.0243.5326.0395.7993.0577.1007.0071.2014.0111.3021.0213.0111.002.0217.0067.0308.0135.009.0069.0164.0158.0215.026.1752.405.3463.8101.5205 1.2151.141.3241.2849.6471.4349.9874-.136.0325-.2738.0569-.4127.0729-.3454.0202-.6927.0425-1.038.0365a7.49133 7.49133 0 01-.9282-.074c-.4178-.0607-.8346-.1357-1.2464-.2278a8.24016 8.24016 0 01-1.4447-.4912 8.44664 8.44664 0 01-1.5866-.8891c-.2618-.1873-.5124-.3919-.7611-.5985a6.07468 6.07468 0 01-.4681-.4324 8.44556 8.44556 0 01-.885-1.0744 7.6909 7.6909 0 01-.6614-1.1564 7.13337 7.13337 0 01-.5084-1.5332.80477.80477 0 01-.0353-.163c0-.1013-.0463-.1216-.1379-.1216h-2.0296a7.50114 7.50114 0 01-.4842 1.6 6.52154 6.52154 0 01-.6756 1.2324c-.2094.2967-.4359.5823-.6705.8608a5.31355 5.31355 0 01-.5688.5884c-.3141.2724-.6423.5296-.9765.7767a7.71948 7.71948 0 01-1.2685.7382 9.16909 9.16909 0 01-1.6521.6015c-.3181.083-.6443.1408-.9705.1934-.3111.0496-.6252.0851-.9393.1124a5.27703 5.27703 0 01-.5366 0c-.2597 0-.5195-.0091-.7782-.0192a2.13904 2.13904 0 01-.2759-.0385c-.0493-.0091-.0694-.0324-.0443-.0911.2014-.4659.4078-.9327.6111-1.3995.1128-.2572.2276-.5256.3534-.8172z" fill="#00838D"/><path d="M58.9089 16.318h2.1363v6.4233h7.7238V16.318h2.1575v15.3641H68.769v-7.0309h-7.7238v7.0309h-2.1363V16.318zM103.418 23.9777c.013 1.1192-.196 2.2298-.615 3.2668-.389.9591-.965 1.83-1.694 2.561-.735.7261-1.608 1.2946-2.5674 1.6709a9.04722 9.04722 0 01-6.4613 0c-.9579-.3754-1.8287-.9453-2.5581-1.6741-.7294-.7287-1.3017-1.6008-1.6813-2.5618-.8055-2.1096-.8055-4.4444 0-6.554.3787-.9552.9521-1.82 1.6833-2.5387.7346-.7124 1.6038-1.2696 2.5561-1.6385a9.19323 9.19323 0 016.4613 0c.9565.3671 1.8294.9243 2.5674 1.6385.732.7201 1.309 1.5843 1.694 2.5387.421 1.0451.63 2.1639.615 3.2912zm-2.309 0a6.84468 6.84468 0 00-.41-2.3757c-.26-.7236-.656-1.3904-1.1648-1.9646-.5084-.5678-1.1295-1.0221-1.8232-1.3337-.7575-.3226-1.5718-.4889-2.3945-.4889-.8227 0-1.637.1663-2.3946.4889-.6914.3101-1.3091.7647-1.8121 1.3337-.5036.5765-.8953 1.2429-1.1548 1.9646a6.85686 6.85686 0 00-.4097 2.3757c-.0056.821.1331 1.6366.4097 2.4091.2564.7263.6522 1.3948 1.1648 1.9676.5064.5609 1.1236 1.0093 1.8122 1.3164.7484.3278 1.5578.4908 2.3739.478a5.84635 5.84635 0 002.3951-.478c.6969-.3032 1.3218-.7519 1.8332-1.3164.5128-.5719.9078-1.2394 1.1648-1.9646.278-.7733.416-1.59.41-2.4121zM121.843 29.7722h6.82v1.9099h-8.961V16.318h2.137l.004 13.4542zM158.865 23.9777c.013 1.1193-.196 2.2298-.615 3.2669-.389.9589-.965 1.8297-1.693 2.561-.735.7261-1.608 1.2946-2.568 1.6709-2.081.7952-4.38.7952-6.462 0-.958-.3754-1.829-.9453-2.558-1.6741-.729-.7288-1.302-1.6008-1.681-2.5619-.806-2.1095-.806-4.4444 0-6.5539.379-.9536.953-1.817 1.684-2.5347.735-.7121 1.604-1.2692 2.556-1.6385a9.19626 9.19626 0 016.462 0c.957.3671 1.83.9244 2.568 1.6385a7.51143 7.51143 0 011.693 2.5388c.42 1.0438.628 2.1612.614 3.287zm-2.308 0c.004-.81-.134-1.6145-.41-2.3756-.261-.7234-.656-1.3901-1.165-1.9646-.509-.5675-1.13-1.0217-1.823-1.3337-.758-.3228-1.572-.4891-2.395-.4891s-1.638.1663-2.395.4891c-.692.31-1.309.7647-1.812 1.3337-.504.5765-.895 1.2429-1.154 1.9646-.276.761-.415 1.5655-.41 2.3756-.006.8211.133 1.6368.41 2.4092.256.7254.652 1.3929 1.165 1.9645.506.5609 1.123 1.0093 1.812 1.3165.748.3277 1.557.4906 2.373.478a5.841 5.841 0 002.395-.478c.697-.3035 1.322-.7522 1.834-1.3165.512-.5721.908-1.2395 1.165-1.9645.276-.7725.415-1.5881.41-2.4092z" fill="#000"/></svg>