<svg width="179" height="48" fill="none" xmlns="http://www.w3.org/2000/svg"><path d="M21.23 29.6l-.36.83-.61 1.4c-.03.05 0 .08.04.09l.28.04a33 33 0 001.31.01 13.2 13.2 0 001.91-.3 9.17 9.17 0 004.47-2.7c.23-.28.46-.57.67-.87a7.5 7.5 0 001.16-2.83h2.02c.1 0 .14.02.14.12 0 .06.02.11.04.17a7.13 7.13 0 001.17 2.69 8.45 8.45 0 001.35 1.5c.25.2.5.41.76.6a8.45 8.45 0 003.03 1.38c.41.1.83.17 1.25.23.3.04.62.07.93.07.34 0 .69-.01 1.03-.03.14-.02.28-.04.42-.08l-.44-.98-.52-1.22a.07.07 0 00-.05-.04l-.3-.02c-.27-.02-.54-.03-.8-.06a6.5 6.5 0 01-4.05-2.1A5.14 5.14 0 0135 25.66l-.1-.39h1.47c.16 0 .2-.03.26-.17l.62-1.44.29-.67a2.81 2.81 0 00-.96-.17H34.9v-.1a5.7 5.7 0 011.42-2.42 5.78 5.78 0 012.78-1.62 7.03 7.03 0 012.04-.29c.08-.02.17.02.22-.08l.2-.46.55-1.28.17-.4-.03-.03c-.23-.04-.46-.08-.7-.1-.23-.02-.47-.01-.7 0l-.48.01c-.24.02-.5.04-.74.08a8.22 8.22 0 00-2.02.52 8.34 8.34 0 00-2.95 1.8c-.2.19-.4.39-.58.6-.23.27-.46.56-.67.86a7.63 7.63 0 00-1.07 2.42l-.1.49h-2.05a.1.1 0 01-.08-.07l-.16-.68a7.13 7.13 0 00-.82-1.92 8.16 8.16 0 00-1.62-1.9 8.65 8.65 0 00-3.68-1.94 9.95 9.95 0 00-3.48-.27l-.21.06.29.67.35.81.3.7.06.06.21.02.87.06a6.14 6.14 0 013.34 1.54 5.24 5.24 0 011.61 2.65l.05.21h-1.6a.23.23 0 00-.16.07.69.69 0 00-.09.19l-.62 1.43-.25.6.04.02a4.17 4.17 0 001.07.14H27.18l-.01.1a5.78 5.78 0 01-4.1 4c-.39.12-.8.19-1.2.22-.21.02-.43 0-.64 0z" fill="#87C1C7"/><path d="M21.23 29.6h.64a6.46 6.46 0 003.34-1.29 5.6 5.6 0 001.45-1.68 5.98 5.98 0 00.53-1.36H25.6a4.17 4.17 0 01-1.11-.17l.25-.6.62-1.42a.69.69 0 01.1-.2c.04-.04.1-.06.15-.06h1.6l-.04-.21a5.24 5.24 0 00-1.62-2.66 6.13 6.13 0 00-3.34-1.54l-.87-.05c-.07 0-.14-.02-.2-.03-.03 0-.06-.04-.07-.06l-.3-.7-.35-.8-.29-.67.21-.06c.45-.07.9-.08 1.35-.06a9.95 9.95 0 013.43.78c.6.25 1.16.57 1.69.94.23.17.46.36.69.55a7.88 7.88 0 011.62 1.9c.36.59.64 1.24.82 1.92l.16.68a.1.1 0 00.08.06h2.04l.1-.49a7.64 7.64 0 012.33-3.87 8.76 8.76 0 012.95-1.8 8.22 8.22 0 012.02-.51c.24-.05.5-.07.74-.09l.47-.02h.7c.24.02.47.07.7.1l.04.03-.18.4-.55 1.29-.2.46c-.04.1-.14.06-.21.08h-.17a7.03 7.03 0 00-2.98.7c-.43.22-.84.48-1.2.8-.16.13-.33.26-.47.4a5.69 5.69 0 00-1.43 2.52H36.58a2.81 2.81 0 01.96.17l-.29.67-.62 1.44c-.06.14-.1.17-.26.17H34.9l.11.39a5.14 5.14 0 001.08 1.84 6.11 6.11 0 002.8 1.83c.4.13.82.23 1.25.27.26.03.53.04.8.06l.3.02a.07.07 0 01.05.04l.52 1.22.44.98a3.5 3.5 0 01-.42.08 7.5 7.5 0 01-1.97-.04c-.41-.06-.83-.14-1.24-.23-.5-.12-.98-.28-1.44-.5a8.44 8.44 0 01-2.35-1.48 8.44 8.44 0 01-2.01-2.66 7.13 7.13 0 01-.55-1.7c0-.1-.05-.12-.14-.12h-2.02a7.5 7.5 0 01-2.4 4.28c-.32.27-.65.53-.98.78a9.17 9.17 0 01-5.37 1.65 19.95 19.95 0 01-1.05-.06c-.05-.01-.07-.04-.05-.1l.61-1.4.36-.81zM58.9 16.32h2.15v6.42h7.72v-6.42h2.16v15.36h-2.16v-7.03h-7.72v7.03H58.9V16.32zM103.42 23.98a8.46 8.46 0 01-.62 3.26 7.6 7.6 0 01-4.26 4.23c-2.08.8-4.38.8-6.46 0a7.48 7.48 0 01-4.24-4.23 9.2 9.2 0 010-6.55 7.37 7.37 0 014.24-4.18 9.2 9.2 0 016.46 0 7.5 7.5 0 014.26 4.18 8.5 8.5 0 01.62 3.29zm-2.31 0c0-.81-.14-1.62-.41-2.38a6.05 6.05 0 00-1.17-1.96 5.44 5.44 0 00-4.21-1.83c-.83 0-1.64.17-2.4.5-.69.3-1.3.76-1.81 1.33-.5.57-.9 1.24-1.15 1.96a7 7 0 000 4.78 5.41 5.41 0 005.35 3.76c.82.02 1.63-.14 2.4-.47.69-.3 1.31-.75 1.82-1.32.52-.57.91-1.24 1.17-1.96.28-.77.41-1.59.4-2.41zM121.84 29.77h6.82v1.91h-8.96V16.32h2.14v13.45zM158.87 23.98a8.46 8.46 0 01-.62 3.26 7.6 7.6 0 01-4.26 4.23c-2.08.8-4.38.8-6.46 0a7.48 7.48 0 01-4.24-4.23 9.18 9.18 0 010-6.55 7.36 7.36 0 014.24-4.18 9.2 9.2 0 016.46 0 7.51 7.51 0 014.26 4.18c.42 1.04.63 2.16.62 3.29zm-2.31 0c0-.81-.14-1.62-.41-2.38a6.07 6.07 0 00-1.17-1.96 5.46 5.46 0 00-4.22-1.83 6.1 6.1 0 00-2.4.5c-.68.3-1.3.76-1.8 1.33-.5.57-.9 1.24-1.16 1.96a6.99 6.99 0 000 4.78c.26.73.66 1.4 1.17 1.97a5.4 5.4 0 004.18 1.8c.82 0 1.64-.16 2.4-.48.7-.3 1.32-.75 1.83-1.32a5.9 5.9 0 001.17-1.96c.27-.78.41-1.6.4-2.41z" fill="#fff"/></svg>