<svg width="34" height="12" fill="none" xmlns="http://www.w3.org/2000/svg"><path fill-rule="evenodd" clip-rule="evenodd" d="M33.07 4.64258L28.83.402585c-.591-.550718-1.512-.534468-2.0832.036756-.5713.571229-.5875 1.492229-.0368 2.083239l1.79 1.79h-27c-.828427 0-1.5.67158-1.5 1.5 0 .82843.671573 1.5 1.5 1.5h26.77l-1.57 1.57c-.4013.37395-.5665.93712-.4308 1.46862.1358.5314.5508.9464 1.0822 1.0822.5315.1357 1.0947-.0295 1.4686-.4308l4.24-4.24002c.5877-.58287.5922-1.5316.01-2.12z" fill="#2C405A"/></svg>