<svg width="42" height="42" fill="none" xmlns="http://www.w3.org/2000/svg"><path fill-rule="evenodd" clip-rule="evenodd" d="M21 0C9.40202 0 0 9.40202 0 21c0 11.598 9.40202 21 21 21 11.598 0 21-9.402 21-21C42 9.40202 32.598 0 21 0zm0 39c-9.9411 0-18-8.0589-18-18S11.0589 3 21 3s18 8.0589 18 18-8.0589 18-18 18z" fill="#75BCC2"/><path fill-rule="evenodd" clip-rule="evenodd" d="M21.5 8.5c-.8284 0-1.5.67157-1.5 1.5v14c0 .8284.6716 1.5 1.5 1.5S23 24.8284 23 24V10c0-.82843-.6716-1.5-1.5-1.5zM21.5 31c.8284 0 1.5-.6716 1.5-1.5s-.6716-1.5-1.5-1.5-1.5.6716-1.5 1.5.6716 1.5 1.5 1.5z" fill="#75BCC2"/></svg>