<svg width="386" height="221" fill="none" xmlns="http://www.w3.org/2000/svg"><path d="M207.394 172.586c-.961-.035-1.705-.833-1.67-1.797.034-.955.831-1.702 1.791-1.667v-.009c.952.035 1.705.842 1.67 1.806-.034.938-.804 1.676-1.73 1.676-.026 0-.044-.009-.061-.009zm10.42-1.988c-.104-.955.579-1.806 1.531-1.911v-.008c.952-.096 1.809.59 1.913 1.545.104.956-.589 1.806-1.541 1.911-.06.008-.121.008-.181.008-.874 0-1.627-.651-1.722-1.545zm-22.692.66c-.943-.174-1.566-1.077-1.393-2.024.173-.946 1.073-1.571 2.017-1.398.943.174 1.566 1.077 1.393 2.024-.156.833-.883 1.424-1.705 1.424-.104 0-.208-.009-.312-.026zm34.626-2.605c-.243-.929.311-1.876 1.237-2.119.926-.243 1.869.312 2.112 1.242.242.929-.312 1.875-1.238 2.118-.147.035-.294.061-.432.061-.771-.009-1.472-.521-1.679-1.302zm-46.568-.513h-.009c-.9-.312-1.385-1.293-1.073-2.205.303-.912 1.289-1.39 2.189-1.086.909.313 1.394 1.294 1.082 2.206-.242.721-.917 1.172-1.635 1.172-.182 0-.373-.026-.554-.087zm58.095-3.169c-.381-.877.035-1.902.909-2.275.882-.374 1.895.035 2.276.92.372.877-.035 1.902-.918 2.275-.216.096-.45.139-.675.139-.675 0-1.315-.399-1.592-1.059zm-69.467-1.676c-.848-.443-1.185-1.485-.753-2.336.442-.851 1.48-1.189 2.337-.755.848.443 1.186 1.485.744 2.344-.303.599-.908.938-1.54.938-.269 0-.537-.061-.788-.191zm80.319-3.647c-.502-.825-.242-1.893.571-2.388.823-.504 1.887-.243 2.38.573.502.816.243 1.884-.571 2.388-.277.174-.588.252-.9.252-.58 0-1.151-.295-1.48-.825zm-90.859-2.813c-.779-.556-.952-1.642-.399-2.423.554-.773 1.636-.955 2.415-.4.779.556.952 1.642.398 2.423-.338.478-.865.73-1.411.73-.346 0-.701-.105-1.003-.33zm100.829-4.056c-.606-.729-.511-1.832.225-2.44.735-.616 1.826-.521 2.44.217.606.739.511 1.833-.225 2.449-.329.269-.718.4-1.108.4-.493 0-.986-.209-1.332-.626zm-110.323-3.864c-.684-.66-.701-1.762-.043-2.457.666-.686 1.756-.712 2.449-.043.692.668.709 1.762.043 2.457-.337.356-.787.53-1.246.53-.433 0-.866-.157-1.203-.487zm119.202-4.376c-.71-.634-.77-1.737-.13-2.449.632-.712 1.731-.773 2.441-.13.709.634.77 1.737.129 2.449-.337.382-.813.573-1.289.573-.407 0-.822-.139-1.151-.443zm-127.441-4.837c-.588-.755-.45-1.849.312-2.431.753-.591 1.834-.452 2.423.304.588.764.45 1.849-.312 2.44-.311.243-.683.365-1.055.365-.52 0-1.03-.235-1.368-.678zm135.031-4.602c-.797-.53-1.013-1.615-.485-2.414.528-.799 1.61-1.016 2.406-.486.796.529 1.012 1.606.484 2.405-.337.512-.882.782-1.445.782-.329 0-.658-.096-.96-.287zm-141.859-5.714c-.467-.833-.173-1.893.658-2.361.839-.469 1.886-.174 2.362.659.468.834.173 1.893-.657 2.371-.269.148-.563.217-.848.217-.606 0-1.195-.313-1.515-.886zm148.012-4.741c-.866-.408-1.238-1.441-.831-2.31.407-.868 1.436-1.241 2.302-.833.865.408 1.237 1.441.831 2.31-.295.625-.918.998-1.567.998-.251 0-.502-.052-.735-.165zm-153.265-6.451c-.337-.895.104-1.902.995-2.249.892-.339 1.895.104 2.242.998.337.903-.104 1.902-.996 2.249-.207.078-.415.113-.623.113-.701 0-1.35-.426-1.618-1.111zm157.825-4.802c-.917-.27-1.436-1.242-1.159-2.163.277-.911 1.237-1.432 2.155-1.163.917.278 1.436 1.25 1.159 2.171-.225.746-.908 1.233-1.653 1.233-.164 0-.337-.026-.502-.078zm-161.39-7.06c-.208-.938.38-1.867 1.315-2.075.935-.209 1.861.382 2.068 1.32.208.937-.38 1.866-1.315 2.075-.13.026-.251.043-.381.043-.787 0-1.506-.555-1.687-1.363zm164.255-4.724c-.943-.139-1.601-1.016-1.463-1.9709.139-.9465 1.013-1.6064 1.965-1.4675.943.1389 1.601 1.0247 1.462 1.9714-.129.859-.865 1.485-1.713 1.485-.087 0-.165 0-.251-.018zm-166.047-7.5283c-.069-.9551.641-1.7887 1.601-1.8582.952-.0695 1.783.6512 1.852 1.6064.069.9552-.649 1.7888-1.601 1.8583-.043 0-.086.0086-.13.0086-.9 0-1.661-.7033-1.722-1.6151zm165.441-6.2867v-.0869-.0781c-.009-.9639.77-1.7454 1.722-1.7454.961 0 1.731.7728 1.731 1.7367V87.793H295c0 .9551-.779 1.7366-1.731 1.7366-.961 0-1.731-.7815-1.731-1.7366zm-163.857-4.2375c-.952-.0695-1.67-.8944-1.601-1.8583.069-.9551.9-1.6759 1.852-1.6064.952.0695 1.67.8944 1.601 1.8582-.061.9118-.822 1.6065-1.722 1.6065h-.13zm162.974-7.7803c-.138-.9465.52-1.8322 1.463-1.9712.943-.1389 1.826.5124 1.964 1.4675.139.9465-.51 1.8322-1.462 1.9712-.087.0086-.165.0173-.251.0173-.848 0-1.584-.6252-1.714-1.4848zm-161.486-4.2636c-.934-.2084-1.523-1.1288-1.324-2.0666.208-.9378 1.134-1.5283 2.069-1.3199.934.1997 1.523 1.1288 1.315 2.0666-.182.8076-.891 1.3633-1.688 1.3633-.121 0-.251-.0173-.372-.0434zm158.899-7.3201c-.277-.9204.242-1.893 1.159-2.1708.918-.2779 1.878.2431 2.155 1.1635.277.9118-.242 1.8843-1.151 2.1622-.173.0521-.337.0782-.502.0782-.744 0-1.428-.4863-1.661-1.2331zm-155.679-4.3851c-.892-.3386-1.342-1.3459-1.004-2.2403.346-.8944 1.341-1.3459 2.241-1.0073.892.3474 1.342 1.3459.995 2.249-.259.686-.917 1.1202-1.618 1.1202-.199 0-.415-.0434-.614-.1216zm151.43-6.7036c-.407-.8683-.035-1.9016.83-2.3097.866-.4082 1.896-.0348 2.302.8336.407.8596.035 1.9016-.83 2.3097-.234.1129-.485.165-.736.165-.649 0-1.272-.3647-1.566-.9986zM137.287 48.709c-.831-.4689-1.134-1.5282-.658-2.3618h-.008c.467-.8423 1.523-1.1376 2.362-.6687.831.4689 1.125 1.5283.658 2.3619-.312.5731-.9.8944-1.506.8944-.286 0-.58-.0781-.848-.2258zm140.716-5.9394c-.537-.7989-.32-1.8756.485-2.4053.787-.5384 1.869-.3213 2.397.4776.528.7989.311 1.8756-.485 2.4053-.294.1997-.623.2952-.96.2952-.554 0-1.108-.2692-1.437-.7728zm-134.26-4.3243c-.753-.5818-.891-1.6759-.312-2.4314.589-.7641 1.671-.903 2.432-.3213.753.5905.892 1.6759.312 2.4401-.338.4428-.857.6773-1.368.6773-.372 0-.744-.1216-1.064-.3647zm126.999-5.0624c-.64-.7121-.58-1.8062.13-2.4488.71-.6425 1.809-.5817 2.449.1303.632.712.58 1.8061-.13 2.4487-.337.3039-.744.4516-1.159.4516-.476 0-.944-.1998-1.29-.5818zm-119.124-4.1507c-.658-.686-.64-1.7888.043-2.4574.693-.6599 1.783-.6426 2.45.0434.666.6947.64 1.7888-.044 2.4574-.337.33-.77.4863-1.203.4863-.45 0-.9-.1737-1.246-.5297zm110.591-4.0812c-.735-.6078-.839-1.7019-.225-2.44.606-.7381 1.696-.8423 2.432-.2345.736.6166.84 1.7107.234 2.4487-.346.4169-.84.6253-1.342.6253-.389 0-.779-.1303-1.099-.3995zM160.74 21.2695c-.563-.7815-.381-1.8669.398-2.4313.77-.5557 1.852-.3821 2.414.3994.554.7815.381 1.867-.398 2.4227-.303.2258-.658.33-1.012.33-.537 0-1.065-.2519-1.402-.7208zm91.829-3.0218c-.814-.5036-1.074-1.5717-.572-2.3879.494-.8162 1.558-1.0767 2.372-.5818.822.5036 1.081 1.5717.579 2.3879-.32.5384-.891.8336-1.479.8336-.303 0-.615-.0781-.9-.2518zm-81.661-3.5341c-.441-.851-.104-1.9017.744-2.3445.849-.4429 1.896-.1042 2.328.7467.442.851.113 1.9017-.735 2.3359-.26.1389-.528.1997-.796.1997-.632 0-1.229-.3473-1.541-.9378zm71.128-1.893c-.882-.3734-1.289-1.3893-.917-2.275.372-.88574 1.385-1.29386 2.268-.92048.874.37339 1.289 1.38938.917 2.27508-.277.6599-.926 1.0593-1.593 1.0593-.225 0-.458-.0434-.675-.1389zm-60.111-3.10864c-.303-.91176.173-1.90166 1.082-2.20558.9-.31261 1.886.17366 2.198 1.07674.303.91175-.173 1.89298-1.082 2.20558-.182.0608-.372.0955-.562.0955-.719 0-1.385-.4515-1.636-1.17224zm48.896-.70336c-.926-.24313-1.489-1.18962-1.246-2.11874.242-.92913 1.185-1.48486 2.111-1.24173.926.23445 1.48 1.18094 1.246 2.11006-.207.78151-.908 1.30251-1.679 1.30251-.147 0-.285-.01736-.432-.0521zm-37.265-2.62238c-.173-.94649.45-1.84956 1.385-2.02323.943-.17367 1.843.44285 2.016 1.38934.182.94649-.441 1.84956-1.385 2.02323-.103.01737-.216.03474-.32.03474-.813-.00869-1.54-.59048-1.696-1.42408zm25.616.49495c-.952-.1042-1.635-.95517-1.531-1.91034.095-.95517.951-1.64985 1.903-1.54564.952.1042 1.636.96385 1.532 1.91034-.095.89439-.848 1.55433-1.713 1.55433-.07 0-.13 0-.191-.00869zm-13.63-2.07533c-.035-.96385.71-1.77141 1.67-1.80614.952-.03473 1.757.71204 1.792 1.66721.034.96386-.71 1.77141-1.662 1.80614h-.069c-.926 0-1.696-.73808-1.731-1.66721z" fill="#E6E7E8"/><path d="M20.3122 191.237c-10.40627 0-17.66622-1.784-19.723019-5.02-.778248-1.227-.778248-2.621-.022235-3.949 4.169184-7.273 33.008854-14.1 86.452254-11.914 2.2013.09 4.4471.257 6.8264.436 9.0164.658 18.3444 1.349 23.5474-2.332l1.29 1.841c-5.848 4.138-15.587 3.424-25.0042 2.733-2.357-.179-4.5917-.335-6.7485-.424-56.0673-2.298-81.20468 5.187-84.41773 10.787-.44472.77-.2446 1.272-.03336 1.618 1.70103 2.688 10.89549 4.942 27.07189 3.558l.189 2.243c-3.3575.278-6.515.423-9.4279.423z" fill="#000"/><path d="M105.052 159.578l3.792-.836-8.828 2.208c-1.0006.246-1.3897.625-1.2341 1.004v14.904c.0112.323.467.669 1.3671.948l18.078 5.723c1.79.558 4.658.669 6.404.234l42.981-10.754c.845-.212 1.268-.513 1.279-.825-.033-4.05-.033-10.442 0-14.803 0 .044-.033.078-.044.122.144-.368-.29-.781-1.312-1.104l-18.134-5.968c-1.79-.569-4.658-.67-6.403-.234l-34.143 8.545" fill="#fff"/><path d="M122.018 185.146c-1.456 0-2.968-.189-4.125-.546l-18.0771-5.723c-1.3786-.435-2.1013-1.093-2.1457-1.963l2.2235-.101c-.0111-.212-.1111-.357-.1445-.39 0 0 .1668.145.7228.323l18.077 5.723c1.59.502 4.247.603 5.804.212l42.981-10.754.534 2.164-42.981 10.754c-.801.201-1.824.301-2.869.301zM122.641 170.287c-1.457 0-2.969-.189-4.125-.546l-18.7557-5.913c-1.4454-.457-2.168-1.16-2.1458-2.074.0222-.625.4002-1.451 2.1235-1.886l42.982-10.753c1.945-.491 5.025-.38 7.004.245l18.133 5.968c1.445.457 2.157 1.16 2.135 2.075-.023.625-.401 1.45-2.124 1.885l-42.348 10.687c-.811.212-1.823.312-2.879.312zm-21.68-8.422l18.233 5.745c1.601.502 4.247.603 5.804.212l41.692-10.531-17.633-5.8c-1.579-.502-4.236-.592-5.793-.212l-42.303 10.586z" fill="#000"/><path d="M167.879 174.091l-.533-2.164c.2-.044.344-.1.433-.134-.033-3.447-.033-8.444-.011-12.471l-2.857.725-.545-2.164 2.968-.748c.478-.122.623-.234.623-.234-.044.033-.167.19-.178.446l2.224.056c-.034 4.373-.034 10.72 0 14.781-.023.658-.412 1.484-2.124 1.907zM99.8449 161.762l-2.2236.008.0545 15.082 2.2236-.008-.0545-15.082z" fill="#000"/><path d="M122.018 185.147c-1.456 0-2.968-.19-4.124-.547l-18.0781-5.723.6671-2.131 18.078 5.723c1.589.502 4.247.603 5.803.212l42.982-10.754c.478-.122.622-.234.622-.234-.044.034-.167.19-.178.435l2.224.101c-.022.613-.423 1.439-2.135 1.862l-42.97 10.754c-.823.201-1.846.302-2.891.302zM103.863 160.984l1.145-19.589c.078-1.383 1.223-2.465 2.601-2.465.701 0 1.368.279 1.857.781.489.501.756 1.171.745 1.885l-.256 18.038-6.092 1.35zm3.746-19.834c-.2 0-.378.156-.389.368l-.978 16.655 1.501-.335.244-16.287c0-.145-.066-.234-.111-.279-.033-.044-.122-.122-.267-.122z" fill="#000"/><path d="M107.176 151.29c-1.001 0-2.135-.301-2.546-1.25l2.046-.881c-.056-.123-.123-.189-.145-.201.278.168 1.245.134 1.49-.067-.034.034-.122.157-.122.313l2.223.033c-.022.982-.778 1.718-2.034 1.964-.278.055-.59.089-.912.089z" fill="#000"/><path d="M88.3644 176.166v-.022h-.0111c-.1668-.636-2.0235-1.194-2.9351-1.517l-18.111-6.214c-2.7127-1.16-4.4693-1.249-6.0703-.803l-35.6771 9.594c-1.4009.379-1.8678.747-1.8011 1.06h-.0111l.0111 16.543c0 .391.3335.513 1.1451.881.0556.023 7.9159 4.15 7.9715 4.172l12.1963 6.326c1.8455.903 3.4131 1.216 5.3254.602l36.7778-13.487c.9005-.279 1.223-.68 1.1896-1.127v.101-16.031-.078z" fill="#fff"/><path d="M208.874 135.152c-.623-.312-1.255-.599-1.861-.929-2.856-1.554-4.266-4.854-3.479-8.084.753-3.083 3.73-5.341 6.984-5.306 3.168.035 6.058 2.301 6.794 5.306.787 3.239-.623 6.521-3.479 8.075-.606.33-1.238.626-1.861.929h-3.098v.009zM210.743 49.1172c15.387.2171 29.805 4.5153 42.578 13.9195 3.808 2.8047 7.209 6.0349 10.316 9.5951.874 1.0073.866 1.0333-.06 1.9798-2.225 2.2403-4.449 4.4806-6.69 6.7123-.814.8075-.857.8162-1.592-.0695-3.324-3.9943-7.14-7.4243-11.476-10.2811-7.364-4.8627-15.43-7.8585-24.145-9.1436-12.012-1.7628-23.582-.2345-34.668 4.7324-7.391 3.3084-13.769 8.0148-19.039 14.206-.208.2432-.442.4776-.615.7468-.424.6252-.787.4429-1.22-.0087-2.354-2.3879-4.708-4.7758-7.105-7.1117-.641-.6165-.528-1.0333.017-1.5717 2.423-2.4053 4.691-4.9842 7.278-7.1898 9.165-7.7977 19.749-12.6778 31.519-15.0136 4.803-.9725 9.649-1.4241 14.902-1.5022z" fill="#E6E7E8"/><path d="M209.982 73.8909c13.941.3386 25.823 4.689 35.456 14.5099.709.7207 1.28 1.5891 1.912 2.3793-.614.6512-1.229 1.3198-1.861 1.9624-1.86 1.8756-3.721 3.7512-5.599 5.6095-.822.8075-.848.8075-1.592-.0521-5.141-5.9655-11.597-9.7775-19.247-11.3926-11.397-2.414-21.99-.4863-31.423 6.582-1.843 1.3806-3.401 3.1347-5.045 4.7671-.857.851-.831.9118-1.601.1564-2.328-2.3185-4.622-4.6717-6.976-6.9641-.64-.6252-.476-1.0073.018-1.5717 2.682-3.0913 5.755-5.7224 9.164-7.9453 6.699-4.3678 14.046-6.8946 21.991-7.6588 1.73-.1736 3.461-.2778 4.803-.382z" fill="#E6E7E8"/><path d="M208.943 97.2057c8.239.0869 14.383 2.1622 19.662 6.6163.684.582 1.333 1.216 1.947 1.876.952 1.016.961 1.059.026 2.006-2.258 2.292-4.552 4.55-6.802 6.86-.562.582-.874.677-1.454-.061-4.941-6.243-15.638-7.146-22.094-1.789-.683.573-1.306 1.251-1.852 1.954-.467.599-.77.443-1.203.009-2.353-2.38-4.699-4.767-7.096-7.103-.718-.695-.511-1.146.061-1.754 3.34-3.552 7.356-6.0613 12.02-7.3552 2.648-.738 5.418-1.0159 6.785-1.2591z" fill="#E6E7E8"/><path d="M318.615 221c-2.279 0-4.559-.435-6.693-1.316l-43.449-17.793c-1.267-.446-2.168-1.729-2.223-3.202-.056-1.372.611-2.543 1.745-3.034.056-.022.111-.045.167-.056l64.017-16.755c1.3-.547 2.735-.636 4.146-.246.045.011.089.034.134.045l47.328 19.979c1.19.368 2.057 1.473 2.191 2.834.133 1.316-.434 2.465-1.49 3.012-.078.033-.156.067-.234.089l-60.881 15.774c-1.545.457-3.157.669-4.758.669zm-49.797-23.259c-.356.201-.356.703-.356.859.022.468.256 1.026.756 1.194.022.011.045.011.067.022l43.482 17.804c3.168 1.294 6.737 1.495 10.028.569l60.748-15.74c.267-.212.233-.659.222-.748-.044-.39-.255-.837-.645-.937-.044-.011-.089-.033-.133-.045L335.67 180.74c-.923-.245-1.857-.178-2.691.19-.056.022-.111.044-.167.056l-63.994 16.755z" fill="#000"/><path d="M303.939 209.41c-1.612 0-3.224-.302-4.769-.915l-22.569-8.969c-.567-.223-.857-.87-.623-1.45.222-.569.867-.859 1.445-.625l22.558 8.969c2.102.837 4.381.982 6.571.435l51.809-11.947c.011 0 .045-.012.056-.09 0-.078-.034-.089-.067-.1l-23.537-9.281c-.567-.224-.856-.871-.622-1.451.222-.569.867-.859 1.445-.624l23.548 9.292c.956.391 1.523 1.305 1.456 2.32-.066 1.027-.756 1.852-1.756 2.098l-51.809 11.947c-1.034.257-2.08.391-3.136.391zM268.029 197.786c-.445 0-.901-.101-1.334-.29-.99-.447-1.768-1.35-2.124-2.477l-.055-.268-2.969-46.953c-.322-3.28 1.023-4.462 2.213-4.886l.133-.033 65.15-13.71c.823-.268 1.713-.19 2.524.2.99.48 1.779 1.406 2.168 2.533l.056.167v.178l.611 44.31c.078 1.294.2 3.659-1.879 4.574l-.166.055-63.194 16.376c-.367.145-.745.224-1.134.224zm-1.301-3.336c.178.457.5.837.878 1.004.189.078.467.156.756.022l.167-.055 63.194-16.377c.322-.167.589-.546.478-2.387v-.056l-.612-44.142c-.211-.502-.555-.892-.978-1.104-.211-.1-.545-.201-.9-.078l-.145.033-65.139 13.71c-.278.112-.868.48-.667 2.577l2.968 46.853z" fill="#000"/><path d="M268.762 193.312c-.422.19-.934-.111-1.1-.636l-2.624-45.503c-.078-.245.022-.513.222-.58l64.562-13.587c.022-.011.044-.011.066-.022.156-.023.367.078.456.323l.256 42.882s-.011 1.45-.59 1.706l-61.248 15.417z" fill="#000"/><path d="M299.392 175.731c-.167-.044-.345-.089-.511-.156-.779-.268-1.201-1.093-1.034-2.03.166-.893.922-1.696 1.79-1.863.845-.167 1.645.29 1.879 1.082.255.848-.078 1.841-.823 2.432-.156.123-.323.245-.489.368-.256.056-.534.112-.812.167zM298.781 151.836c4.102-.814 8.004-.457 11.54 1.417 1.045.558 2.001 1.261 2.868 2.064.245.223.245.234.011.547-.567.747-1.123 1.494-1.701 2.242-.211.267-.222.279-.422.078-.934-.915-2.001-1.651-3.191-2.187-2.023-.926-4.214-1.294-6.559-1.149-3.225.201-6.293 1.283-9.184 3.291-1.923 1.339-3.569 3.001-4.892 5.02-.055.078-.111.156-.155.246-.1.2-.2.167-.323.066-.656-.524-1.312-1.048-1.99-1.561-.178-.134-.155-.257-.011-.435.612-.804 1.19-1.651 1.846-2.41 2.346-2.677 5.103-4.629 8.205-5.957 1.267-.546 2.557-.948 3.958-1.272z" fill="#fff"/><path d="M298.892 158.73c3.724-.702 6.949-.178 9.639 1.986.2.156.367.368.545.547-.156.212-.312.435-.467.647-.467.624-.945 1.249-1.423 1.874-.211.268-.223.268-.423.078-1.445-1.361-3.224-2.041-5.281-2.053-3.068-.022-5.87 1.127-8.294 3.615-.478.479-.867 1.059-1.278 1.606-.223.279-.211.301-.423.134-.656-.502-1.289-1.026-1.956-1.528-.178-.134-.145-.246-.011-.435.678-1.004 1.456-1.908 2.334-2.722 1.735-1.596 3.658-2.711 5.759-3.38.467-.134.923-.268 1.279-.369z" fill="#fff"/><path d="M298.925 165.234c2.201-.446 3.858-.223 5.326.703.189.123.366.256.544.401.267.224.267.235.034.547-.578.759-1.157 1.517-1.724 2.287-.144.19-.222.234-.389.067-1.401-1.439-4.258-1.082-5.914.77-.178.2-.334.424-.467.647-.111.189-.2.167-.323.067-.656-.525-1.312-1.049-1.979-1.562-.2-.156-.155-.29-.011-.491.845-1.171 1.879-2.097 3.113-2.722.689-.335 1.423-.569 1.79-.714z" fill="#fff"/><path d="M107.398 121.806c3.536.056 6.849 1.037 9.784 3.202.878.647 1.656 1.383 2.368 2.208.2.235.2.235-.011.458-.512.513-1.023 1.026-1.535 1.539-.189.19-.2.19-.366-.011-.768-.915-1.646-1.707-2.635-2.365-1.69-1.115-3.547-1.807-5.548-2.097-2.757-.402-5.426-.056-7.972 1.082-1.7007.759-3.1682 1.841-4.3689 3.268-.0445.056-.1001.112-.1446.168-.1.145-.1779.1-.2779 0-.5448-.547-1.0784-1.093-1.6343-1.64-.1446-.145-.1223-.234 0-.357.5559-.547 1.0784-1.149 1.6676-1.651 2.1013-1.796 4.5361-2.912 7.2491-3.447 1.1-.234 2.212-.335 3.424-.357z" fill="#E6E7E8"/><path d="M107.22 127.495c3.202.078 5.937 1.082 8.15 3.336.166.167.289.368.433.546-.144.145-.278.302-.422.447-.423.435-.856.859-1.29 1.294-.189.189-.2.189-.367-.012-1.178-1.372-2.668-2.242-4.425-2.621-2.624-.558-5.058-.112-7.226 1.517-.423.312-.779.725-1.157 1.093-.2.201-.189.212-.366.034-.534-.536-1.0566-1.071-1.6014-1.595-.1445-.145-.1112-.235 0-.357.6115-.714 1.3234-1.317 2.1124-1.83 1.545-1.004 3.224-1.584 5.059-1.762.4-.034.789-.067 1.1-.09z" fill="#E6E7E8"/><path d="M106.987 132.861c1.89.022 3.302.502 4.514 1.517.155.134.311.279.444.435.223.235.223.246.011.458-.522.524-1.045 1.048-1.567 1.573-.134.133-.2.156-.334-.012-1.134-1.439-3.591-1.639-5.081-.412-.155.134-.3.29-.422.446-.111.134-.178.1-.278 0-.545-.547-1.078-1.093-1.634-1.629-.167-.156-.123-.268.011-.401.767-.815 1.69-1.395 2.768-1.685.612-.178 1.245-.234 1.568-.29z" fill="#E6E7E8"/><path d="M48.8072 188.984c-1.0006 0-2.0235-.268-3.2131-.803l-20.8459-9.293c-.3558-.156-.5448-.334-.5226-.535.0223-.346.6338-.67 1.8122-.993l35.0879-9.337c1.7566-.48 3.5577-.246 6.0036.781l17.8108 6.046c.1112.045.2446.089.3891.134 1.0229.346 2.5571.87 2.546 1.461 0 .335-.4558.625-1.3897.915l-35.7327 11.3c-.6671.212-1.3008.324-1.9456.324zm14.0974-21.128c-.6004 0-1.1896.078-1.7567.234l-35.0878 9.337c-1.4231.379-1.7455.714-1.7566.926-.0112.201.2557.368.478.457l20.846 9.293c1.9345.881 3.4131 1.015 5.103.479l35.7327-11.3c.8895-.268 1.3342-.547 1.3453-.837.0111-.546-1.5565-1.082-2.5015-1.394-.1445-.045-.2668-.089-.3891-.134l-17.8108-6.046c-1.6343-.681-2.9685-1.015-4.2025-1.015z" fill="#000"/><path d="M87.8196 192.063h-.0667l.0334-15.696h.0778l-.0445 15.696zM51.4311 185.392c0 .535-1.1896.97-2.6571.97-1.4676 0-2.6461-.435-2.6461-.97 0-.536 1.1896-.971 2.6461-.971 1.4675 0 2.6571.435 2.6571.971zM42.9148 200.351c-.9561 0-1.8455-1.037-2.1902-2.588-.3669-1.651.1001-3.123 1.0562-3.358.8672-.211 1.701.525 2.1902 1.919.0667.19.1334.402.1779.625.0445.223.089.435.1223.636.1779 1.082.1112 1.774-.2335 2.231-.2223.301-.5559.48-.9783.524-.0445 0-.089.011-.1446.011zm-.8338-5.321c-.0445 0-.0889 0-.1334.011-.5114.123-.8672 1.216-.567 2.577.2779 1.25.9895 2.131 1.6232 2.064.2335-.022.4002-.1.5114-.245-.0667.022-.1334.033-.2112.033-.6449.056-1.5343-.77-1.79-1.93-.2557-1.182.0222-2.22.6559-2.51h-.0889zm.4781.58c-.0334 0-.0556 0-.0779.011-.289.067-.5558.781-.3335 1.785.2112.937.8894 1.439 1.0784 1.406.2113-.022.2891-.101.3336-.156.1334-.19.1223-.569.0778-.926 0-.023 0-.034-.0111-.056-.0334-.234-.0778-.446-.1112-.591-.0445-.19-.0889-.357-.1556-.525-.1557-.412-.3669-.736-.5893-.881-.0778-.044-.1445-.067-.2112-.067zm9.5613 4.529c-.1445 0-.2779-.044-.4002-.122-.189-.134-.3002-.346-.3002-.58v-5.11c0-.345.2112-.647.5336-.758l6.504-2.242c.1667-.056.3557-.034.5003.078.1445.1.2334.279.2334.457v5.254c0 .301-.189.58-.478.681l-6.3594 2.309c-.0778.022-.1557.033-.2335.033zm-.0333-1.305v.603l6.4149-2.265c.0223-.011.0445-.033.0445-.056v-5.109l-.8783.301v3.994c0 .312-.189.58-.4781.68l-5.103 1.852zm4.9029-6.303l-4.814 1.663c-.0556.022-.0889.066-.0889.133v3.804l4.8696-1.773.0333-3.827z" fill="#000"/><path d="M48.4515 208.216c-1.512 0-2.7794-.491-3.869-1.026l-12.2185-6.337c-.0111 0-1.0895-.569-2.457-1.282-2.2792-1.194-5.3477-2.8-5.5034-2.879l-.1556-.067c-.756-.345-1.6121-.736-1.6121-1.818l-.0111-16.465c-.0111-.09-.0111-.168 0-.235.0778-1.137 1.3786-1.639 2.6349-1.974l35.6883-9.594c2.0345-.569 4.0691-.312 6.793.859l18.4222 6.314c1.5676.536 3.3465 1.138 3.3242 2.544 0 .055 0 .111-.0111.167v15.863c-.0111.569-.2891 1.584-1.979 2.097l-36.7222 13.465c-.8338.256-1.612.368-2.3236.368zm-23.592-13.777c.0889.045.2001.1.3113.145l.189.089c.0445.023.0667.034 5.57 2.912 1.323.691 2.3903 1.249 2.4459 1.283l12.1963 6.325c1.7677.859 2.9907 1.015 4.4805.524l36.7444-13.464c.2446-.079.3891-.145.4559-.179v-13.866l-36.2664 11.579c-1.979.636-3.7801.48-6.0148-.546l-20.1344-9.059.0223 14.257zm1.1006-16.198l19.9343 8.98c1.7455.804 2.9462.926 4.4138.447l36.0774-11.524c-.3669-.134-.7338-.268-.9451-.335l-18.5-6.347c-2.8684-1.227-4.3471-1.082-5.4144-.781l-35.566 9.56z" fill="#000"/><path d="M48.5848 184.578l-.0223-.012-.1111.179c.189.123.2112.279.0667.401l-.3113-.133-.4003.055.4781.212c-.2668.078-.6448.078-.9339-.011h-.0111l-.4114.056.0223.011c.4558.201 1.1451.223 1.6009.067l.2224.089c-.3447.212-.2668.513.189.714l.0222.011.1112-.178c-.2001-.134-.2112-.301-.0445-.413l.3224.145.4003-.044-.467-.201c.2669-.067.6115-.056.8895.022h.0111l.4113-.056-.0222-.011c-.4447-.189-1.1007-.223-1.5676-.089l-.2335-.1c.3224-.224.2335-.514-.2112-.714z" fill="#fff"/><path d="M39.3794 197.105c-.0556 0-.1112-.011-.1557-.033l-4.814-2.187c-.1445-.067-.2334-.201-.2223-.357l.1445-7.351c0-.134.0667-.246.1779-.313.1112-.066.2446-.078.3669-.022l4.8251 2.175c.1445.067.2335.201.2224.357l-.1557 7.363c0 .134-.0667.245-.1779.312-.0667.045-.1334.056-.2112.056zm-4.4249-2.811l4.058 1.841.0556-2.533-4.058-1.84-.0556 2.532zm.0667-3.592l4.058 1.841.0556-2.945-4.0691-1.83-.0445 2.934zm-1.601 3.704c-.0555 0-.1111-.012-.1556-.034l-5.8035-2.644c-.1445-.067-.2335-.201-.2224-.357l.1557-7.329c0-.134.0667-.245.1779-.312.1111-.067.2446-.078.3668-.023l5.8036 2.622c.1445.067.2334.201.2223.357l-.1556 7.34c0 .134-.0667.246-.1779.313-.0667.044-.1334.067-.2113.067zm-5.4143-3.269l5.0475 2.298.1334-6.504-5.0475-2.275-.1334 6.481zm3.2575 1.272c-.0556 0-.1112-.011-.1557-.034l-1.2007-.546c-.1445-.067-.2223-.201-.2223-.357l.0111-.424-.2224-.101c-.1445-.067-.2335-.2-.2223-.357l.0222-.647-.7894-.357c-.1445-.067-.2335-.2-.2223-.357l.0667-3.447c0-.133.0667-.245.1779-.312.1111-.067.2446-.078.3668-.022l3.8691 1.74c.1445.067.2334.201.2223.357l-.0667 3.458c0 .134-.0667.246-.1779.312-.1112.067-.2446.079-.3669.023l-.2223-.101-.0111.324c0 .134-.0668.245-.1779.312-.0779.056-.1779.067-.2669.056v.112c0 .133-.0667.245-.1778.312-.089.033-.1668.056-.2335.056zm-.8116-1.183l.4447.201v-.089c0-.134.0667-.246.1779-.313.0778-.055.1779-.066.2668-.055l.0111-.335c0-.134.0667-.245.1779-.312.1112-.067.2446-.078.3669-.023l.2224.101.0555-2.622-3.1129-1.405-.0556 2.61.8004.357c.1446.067.2335.201.2224.357l-.0222.647.2223.1c.1446.067.2335.201.2224.357v.424z" fill="#000"/><path d="M28.695 185.782l3.869 1.741-.0778 3.458-3.4799 1.205c-.2446.089-.5225.078-.7671-.012l-2.2681-.892c-.3001-.123-.5114-.413-.5114-.747v-2.711c0-.357.2113-.692.5448-.837l2.6905-1.205z" fill="#000"/><path d="M20.2901 191.237c-2.5127 0-5.2365-.1-7.7825-.412l.2668-2.231c7.3711.881 16.6767-.023 16.7657-.034l.2223 2.242c-.2668.034-4.4582.435-9.4723.435z" fill="#000"/></svg>