<svg fill="none" xmlns="http://www.w3.org/2000/svg" viewBox="0 0 54 54"><circle cx="27" cy="27" r="27" fill="#D1E9EB"/><path d="M11.7 37.21c.33 0 .67.02.99 0a9.27 9.27 0 0 0 7.36-4.62c.34-.61.59-1.28.77-1.95.02-.05.02-.11.03-.16h-2.42a6.84 6.84 0 0 1-1.64-.2.21.21 0 0 1-.06-.05l.38-.94.95-2.22c.03-.11.07-.2.13-.3.07-.06.16-.1.25-.1h2.46l-.06-.33a8.19 8.19 0 0 0-1.42-2.93c-.33-.43-.68-.82-1.07-1.2-.48-.46-1-.85-1.6-1.18a9.88 9.88 0 0 0-3.56-1.23c-.44-.05-.87-.07-1.32-.1-.1 0-.22-.01-.32-.03a.14.14 0 0 1-.1-.1L11 18.5l-.54-1.26L10 16.2l.32-.1c.69-.09 1.38-.12 2.08-.09a14.58 14.58 0 0 1 5.28 1.2 13.52 13.52 0 0 1 6.13 5.27c.57.93.99 1.94 1.27 3 .09.34.15.7.23 1.05.01.05.06.1.12.1h3.14c.06-.25.1-.5.15-.76a12.35 12.35 0 0 1 1.66-3.75 17.06 17.06 0 0 1 1.92-2.27 14.1 14.1 0 0 1 8.78-3.74c.25-.02.48-.04.72-.04h1.09c.35.02.7.1 1.06.16.02 0 .02.02.05.05l-.26.63-.85 2c-.11.24-.22.48-.31.73-.06.16-.22.1-.33.13a10.91 10.91 0 0 0-4.82 1.09c-.67.33-1.28.74-1.86 1.23-.23.2-.5.4-.7.64a8.68 8.68 0 0 0-2.17 3.77c-.02.05-.02.11-.03.16h.17c.8 0 1.62-.02 2.42 0 .48 0 .96.08 1.43.24l.04.03-.45 1.04-.94 2.24c-.1.22-.15.27-.4.27h-2.26l.17.6a7.78 7.78 0 0 0 1.66 2.85 9.08 9.08 0 0 0 2.41 1.99 10.05 10.05 0 0 0 3.8 1.28l1.22.1c.16 0 .31 0 .47.02.03.02.06.04.07.07a98.57 98.57 0 0 0 1.47 3.44c-.21.04-.41.1-.63.1-.53.04-1.07.07-1.6.07-.47 0-.95-.05-1.42-.11-.63-.1-1.28-.2-1.91-.35a14.27 14.27 0 0 1-4.67-2.14c-.4-.3-.8-.62-1.18-.93a12.75 12.75 0 0 1-3.1-4.15 10.7 10.7 0 0 1-.76-2.38c-.03-.08-.05-.18-.06-.26 0-.15-.08-.19-.22-.19h-3.12a11.82 11.82 0 0 1-3.68 6.68c-.48.42-1 .82-1.5 1.21a13.62 13.62 0 0 1-5.97 2.38c-.48.08-.96.13-1.44.18h-.82c-.4 0-.8-.02-1.19-.03a3.79 3.79 0 0 1-.42-.07c-.07-.01-.1-.05-.06-.14l.94-2.18.56-1.3Z" fill="#00838D"/></svg>
