<svg width="66" height="66" fill="none" xmlns="http://www.w3.org/2000/svg"><path d="M32.77 63.21a30.3 30.3 0 0 0 30.27-30.27A30.3 30.3 0 0 0 32.77 2.66 30.3 30.3 0 0 0 2.5 32.94a30.31 30.31 0 0 0 30.27 30.27Zm0-54.53a24.28 24.28 0 0 1 24.26 24.26 24.28 24.28 0 0 1-24.26 24.25A24.28 24.28 0 0 1 8.51 32.94 24.29 24.29 0 0 1 32.77 8.68Z" fill="#5C4DA6"/><path d="M32.77 39.4a3 3 0 0 0 3.01-3.01V20.34a3.01 3.01 0 0 0-6.02 0V36.4a3.01 3.01 0 0 0 3.01 3ZM32.77 48.54a3 3 0 0 0 3.01-3v-.5a3.01 3.01 0 0 0-6.02 0v.5a3 3 0 0 0 3.01 3Z" fill="#5C4DA6"/></svg>