<svg width="24" height="25" fill="none" xmlns="http://www.w3.org/2000/svg"><path fill-rule="evenodd" clip-rule="evenodd" d="M11.7333 2.66667c.4419 0 .8-.35818.8-.8V.8c0-.441828-.3581-.8-.8-.8-.4418 0-.8.358172-.8.8v1.06667c0 .44182.3582.8.8.8zM23.2 9.8667h-1.0667c-.4418 0-.8.3582-.8.8s.3582.8.8.8H23.2c.4418 0 .8-.3582.8-.8s-.3582-.8-.8-.8zM2.66667 10.6667c0-.4418-.35818-.8-.8-.8H.8c-.441828 0-.8.3582-.8.8s.358172.8.8.8h1.06667c.44182 0 .8-.3582.8-.8zM19.1627 5.36537c.2121-.00019.4154-.08459.5653-.23467l.7573-.752c.2937-.31521.2851-.80641-.0196-1.11106-.3046-.30465-.7958-.31332-1.111-.0196l-.7574.752c-.2285.22878-.2968.57263-.1731.87138.1237.29876.4151.49367.7385.49395zM4.86937 4.00004l-.75733-.752c-.31521-.29372-.80641-.28505-1.11106.0196-.30466.30465-.31332.79585-.01961 1.11106l.75734.752c.31521.29372.80641.28505 1.11106-.0196.30465-.30465.31332-.79585.0196-1.11106zM20.8 16.8c-.3152-.2937-.8064-.285-1.111.0196-.3047.3047-.3134.7959-.0196 1.1111l.7573.752c.3152.2937.8064.2851 1.1111-.0196.3046-.3047.3133-.7959.0196-1.1111L20.8 16.8zM2.66669 16.8l-.75734.752c-.29371.3152-.28505.8064.01961 1.1111.30465.3047.79585.3133 1.11106.0196l.75733-.752c.29372-.3152.28505-.8064-.0196-1.1111-.30465-.3046-.79585-.3133-1.11106-.0196zM19.4667 12c.0051-3.66318-2.648-6.78909-6.2633-7.37949-3.61529-.59039-7.12497 1.52911-8.28547 5.00363-1.16049 3.47456.37097 7.27776 3.61541 8.97856-.16635.2575-.25521.5574-.256.864v1.6c0 1.7673 1.43269 3.2 3.19996 3.2h1.0667c1.7673 0 3.2-1.4327 3.2-3.2v-1.6c-.0008-.3066-.0896-.6065-.256-.864 2.4477-1.2932 3.979-3.8344 3.9787-6.6027zm-5.3334 7.4667V20h-2.6666c-.4419 0-.8.3582-.8.8s.3581.8.8.8h2.5706c-.2254.6377-.8276 1.0648-1.504 1.0667h-1.0666c-.8837 0-1.60003-.7164-1.60003-1.6v-1.6h4.26663zM12 17.8667c-3.24007 0-5.86667-2.6266-5.86667-5.8667 0-3.24007 2.6266-5.86667 5.86667-5.86667 3.2401 0 5.8667 2.6266 5.8667 5.86667 0 1.5569-.6189 3.0499-1.7202 4.1502-1.1014 1.1004-2.595 1.7179-4.1518 1.7165H12z" fill="#94CBCF"/><path fill-rule="evenodd" clip-rule="evenodd" d="M12 7.46667c-.4418 0-.8.35818-.8.8 0 .44183.3582.8.8.8 1.6188.00294 2.9304 1.31453 2.9333 2.93333 0 .4418.3582.8.8.8.4419 0 .8-.3582.8-.8C16.5304 9.49754 14.5025 7.46961 12 7.46667z" fill="#94CBCF"/></svg>