<svg width="24" height="23" fill="none" xmlns="http://www.w3.org/2000/svg"><path fill-rule="evenodd" clip-rule="evenodd" d="M12 14.0488c3.2254 0 5.8536-3.1493 5.8536-7.02441C17.8536 3.14927 15.2254 0 12 0 8.77462 0 6.14633 3.14927 6.14633 7.02439c0 3.87511 2.63415 7.02441 5.85367 7.02441zm0-12.29268c2.2654 0 4.0976 2.34147 4.0976 5.2683S14.2654 12.2927 12 12.2927c-2.26536 0-4.09756-2.34145-4.09756-5.26828S9.73464 1.75612 12 1.75612z" fill="#94CBCF"/><path fill-rule="evenodd" clip-rule="evenodd" d="M17.3561 13.4634c-.4849-.0485-.9174.3053-.9659.7903-.0485.4849.3054.9173.7903.9658 2.7231.32 4.8328 2.533 5.0224 5.2683H1.79707c.2075-2.7274 2.30809-4.9308 5.02244-5.2683.48493-.0485.83874-.4809.79025-.9658-.0485-.485-.48092-.8388-.96586-.7903C6.57951 13.4634 0 14.2127 0 21.36c0 .4849.393116.8781.878049.8781H23.122c.4849 0 .878-.3932.878-.8781 0-7.1473-6.5795-7.8966-6.6439-7.8966z" fill="#94CBCF"/></svg>