<svg width="16" height="17" fill="none" xmlns="http://www.w3.org/2000/svg"><path fill-rule="evenodd" clip-rule="evenodd" d="M12.9276 4.39233C12.4767 2.49795 11.1095 0 8.00073 0 5.62276 0 4.4556 1.06899 3.89565 1.96709c-.21532.34623-.37827.72238-.48359 1.11626C1.92128 3.50877.0014565 4.71593.0014565 7.27206-.0466873 9.13677 1.10267 10.8235 2.85574 11.4608c.82683.3354 1.70773.5177 2.59977.5381h.3636v-1.0908h-.3636s-4.36324 0-4.36324-3.63604c0-2.90882 3.27243-3.27242 3.27243-3.27242s0-2.90883 3.63603-2.90883c3.63607 0 3.99967 4.36324 3.99967 4.36324.1005-.00563.2012-.00563.3018 0 .7272 0 2.607.2327 2.607 2.54522 0 2.90883-4.3632 2.90883-4.3632 2.90883h-.72726v1.0908h.72726c1.8871 0 5.454-.8363 5.454-3.99963 0-2.37069-1.5417-3.39605-3.0724-3.60694z" fill="#fff"/><path fill-rule="evenodd" clip-rule="evenodd" d="M5.81173 13.6351c-.09118-.1068-.22322-.1702-.36361-.1745-.1356-.0012-.2662.0511-.3636.1454-.21987.2058-.23126.5509-.02545.7708l2.18162 2.3635c.32858.1941.73677.1941 1.06535 0l2.36346-2.4071c.2126-.2129.2126-.5579 0-.7708-.2305-.2148-.5877-.2148-.81814 0l-1.4726 1.4544V7.36657c0-.30122-.24418-.5454-.5454-.5454s-.54541.24418-.54541.5454v7.90473l-1.47622-1.6362z" fill="#fff"/></svg>